<?xml version="1.0" standalone="no"?>
<!DOCTYPE svg PUBLIC "-//W3C//DTD SVG 20010904//EN"
 "http://www.w3.org/TR/2001/REC-SVG-20010904/DTD/svg10.dtd">
<svg version="1.0" xmlns="http://www.w3.org/2000/svg"
 width="512.000000pt" height="512.000000pt" viewBox="0 0 512.000000 512.000000"
 preserveAspectRatio="xMidYMid meet">

<g transform="translate(0.000000,512.000000) scale(0.100000,-0.100000)"
fill="#000000" stroke="none">
<path d="M2304 4423 c-9 -32 -38 -132 -64 -222 l-46 -164 -110 -37 c-60 -20
-154 -59 -209 -87 l-100 -50 -201 112 -202 112 -170 -171 -169 -171 112 -200
112 -200 -54 -107 c-29 -58 -68 -152 -86 -209 l-33 -102 -165 -47 c-90 -26
-190 -55 -222 -64 l-57 -17 0 -239 0 -239 58 -17 c31 -9 131 -38 221 -64 l164
-46 37 -110 c20 -60 59 -154 87 -209 l50 -100 -112 -201 -112 -202 171 -170
171 -170 200 112 200 112 100 -50 c55 -27 149 -66 209 -86 l110 -37 46 -164
c26 -90 55 -190 64 -221 l17 -58 239 0 239 0 17 58 c9 31 38 131 64 221 l46
164 113 38 c62 20 157 60 210 87 l96 49 200 -112 200 -112 171 169 171 170
-112 202 -112 201 50 100 c28 55 67 149 87 209 l37 110 164 46 c90 26 190 55
222 64 l57 17 0 239 0 239 -57 17 c-32 9 -132 38 -222 64 l-164 46 -37 110
c-20 60 -59 154 -87 209 l-50 100 112 201 112 202 -171 170 -171 169 -200
-112 -199 -112 -106 53 c-58 30 -152 69 -209 87 l-104 33 -47 165 c-26 90 -55
190 -64 222 l-17 57 -239 0 -239 0 -17 -57z m402 -834 c328 -45 628 -259 778
-554 320 -631 -62 -1387 -759 -1500 -510 -83 -1003 223 -1158 720 -150 481 74
1006 528 1233 191 96 401 130 611 101z"/>
<path d="M2435 3270 c-145 -27 -271 -94 -381 -204 -90 -90 -143 -175 -182
-294 -22 -67 -26 -94 -25 -212 0 -119 3 -144 26 -215 38 -115 91 -199 182
-290 91 -91 175 -144 290 -182 71 -23 96 -26 215 -26 119 0 144 3 215 26 115
38 199 91 290 182 91 91 144 175 182 290 23 71 26 96 26 215 0 119 -3 144 -26
215 -38 115 -91 199 -182 290 -139 140 -284 203 -475 210 -58 2 -127 0 -155
-5z m289 -348 c91 -42 149 -100 194 -190 35 -72 37 -81 37 -172 0 -91 -2 -100
-37 -172 -45 -91 -103 -147 -196 -191 -61 -29 -76 -32 -162 -32 -86 0 -101 3
-162 32 -93 44 -151 100 -196 191 -35 72 -37 81 -37 171 0 87 3 102 32 163 40
85 97 147 172 186 78 42 122 52 213 48 61 -3 92 -11 142 -34z"/>
</g>
</svg>
