<?xml version="1.0" standalone="no"?>
<!DOCTYPE svg PUBLIC "-//W3C//DTD SVG 20010904//EN"
 "http://www.w3.org/TR/2001/REC-SVG-20010904/DTD/svg10.dtd">
<svg version="1.0" xmlns="http://www.w3.org/2000/svg"
 width="980.000000pt" height="980.000000pt" viewBox="0 0 980.000000 980.000000"
 preserveAspectRatio="xMidYMid meet">

<g transform="translate(0.000000,980.000000) scale(0.100000,-0.100000)"
fill="#000000" stroke="none">
<path d="M7355 9789 c-427 -44 -828 -209 -1175 -485 -47 -37 -500 -482 -1006
-988 -852 -851 -924 -926 -954 -987 -159 -332 105 -698 468 -648 38 5 95 23
132 40 60 29 143 109 995 959 1003 1000 995 993 1198 1089 307 146 686 167
999 55 451 -161 780 -547 864 -1014 23 -126 23 -345 0 -464 -37 -190 -100
-345 -207 -508 -55 -82 -190 -221 -1158 -1189 -773 -774 -1121 -1115 -1180
-1159 -334 -244 -788 -315 -1187 -184 -175 57 -332 150 -485 288 -108 98 -185
140 -286 157 -188 31 -383 -72 -471 -250 -37 -74 -37 -77 -37 -195 0 -114 2
-125 31 -186 102 -216 568 -541 955 -668 371 -121 770 -145 1144 -71 357 71
693 231 975 464 99 81 2045 2016 2225 2212 181 197 312 392 408 608 273 610
260 1303 -35 1895 -85 172 -154 280 -263 415 -86 106 -242 262 -340 340 -298
239 -667 401 -1050 460 -122 19 -437 27 -560 14z"/>
<path d="M3955 6445 c-408 -54 -774 -210 -1105 -471 -86 -68 -2057 -2026
-2245 -2231 -124 -135 -213 -253 -297 -393 -408 -683 -408 -1572 0 -2257 98
-166 196 -289 346 -439 352 -351 755 -555 1246 -631 158 -24 490 -24 649 1
403 62 780 231 1090 488 47 39 496 481 997 982 839 839 913 916 942 977 64
132 65 270 5 398 -30 63 -108 151 -167 188 -122 78 -289 88 -430 26 -56 -24
-132 -97 -996 -958 -820 -817 -947 -939 -1029 -994 -205 -135 -379 -197 -625
-222 -462 -47 -945 182 -1205 570 -105 158 -162 292 -203 481 -30 135 -30 385
0 520 41 187 97 321 203 481 55 83 185 218 1168 1200 793 794 1127 1121 1181
1159 144 100 325 178 500 216 112 24 344 29 460 10 275 -45 483 -146 705 -341
60 -53 124 -100 160 -116 226 -105 491 -8 599 221 29 61 31 72 31 185 0 114
-2 123 -31 186 -38 79 -128 178 -258 283 -328 265 -701 426 -1120 481 -142 18
-429 18 -571 0z"/>
</g>
</svg>
