<svg id="svg" version="1.1" xmlns="http://www.w3.org/2000/svg" xmlns:xlink="http://www.w3.org/1999/xlink" width="400" height="319.3333333333333" viewBox="0, 0, 400,319.3333333333333"><g id="svgg"><path id="path0" d="M169.169 12.460 C 167.236 12.604,164.649 12.884,163.419 13.082 C 157.784 13.990,156.970 14.134,156.070 14.386 C 155.543 14.533,154.465 14.819,153.674 15.021 C 149.393 16.115,149.932 15.943,144.089 18.070 C 127.812 23.996,111.032 38.512,102.695 53.880 C 99.602 59.580,96.070 67.001,94.353 71.406 C 93.737 72.987,93.083 74.641,92.899 75.080 C 92.716 75.519,92.422 76.238,92.247 76.677 C 92.071 77.117,91.808 77.764,91.661 78.115 C 91.515 78.466,90.594 81.126,89.615 84.026 C 88.636 86.925,87.711 89.657,87.561 90.096 C 87.410 90.535,86.974 91.973,86.592 93.291 C 86.209 94.609,85.634 96.550,85.314 97.604 C 84.740 99.490,84.399 100.852,81.788 111.661 C 79.750 120.103,79.298 122.059,78.907 124.121 C 78.707 125.176,78.423 126.613,78.275 127.316 C 78.128 128.019,77.840 129.457,77.636 130.511 C 77.432 131.565,77.144 133.003,76.997 133.706 C 76.850 134.409,76.563 135.847,76.359 136.901 C 74.537 146.338,71.087 148.884,60.132 148.879 C 50.050 148.873,22.868 149.565,22.579 149.835 C 22.161 150.224,83.405 212.007,101.376 229.325 L 105.449 233.250 113.501 225.331 C 137.738 201.495,189.418 149.674,189.185 149.441 C 189.036 149.291,179.295 149.096,167.540 149.007 C 155.003 148.912,145.579 148.712,144.747 148.524 C 140.319 147.522,137.053 144.308,135.819 139.739 C 134.999 136.706,135.977 120.054,137.365 113.419 C 137.530 112.628,137.753 111.550,137.860 111.022 C 138.762 106.571,140.257 100.719,141.328 97.444 C 142.541 93.734,143.126 92.130,144.384 89.058 C 145.372 86.645,148.980 79.371,150.105 77.523 C 150.838 76.319,151.438 75.269,151.438 75.189 C 151.438 74.866,157.140 66.775,157.819 66.134 C 157.912 66.046,159.042 64.721,160.330 63.189 C 166.655 55.665,175.355 48.856,184.345 44.391 C 189.010 42.075,196.798 39.143,200.000 38.498 C 200.615 38.374,201.621 38.161,202.236 38.025 C 208.914 36.543,214.578 35.857,222.993 35.511 C 226.413 35.370,229.792 35.367,230.501 35.505 C 232.151 35.825,239.297 35.859,239.297 35.546 C 239.297 34.798,236.876 30.563,236.373 30.431 C 236.048 30.346,235.783 30.150,235.783 29.995 C 235.783 29.839,235.653 29.712,235.494 29.712 C 235.335 29.712,234.293 29.188,233.178 28.548 C 232.063 27.907,230.288 26.938,229.233 26.393 C 228.179 25.849,227.244 25.330,227.157 25.241 C 226.989 25.071,226.383 24.781,223.885 23.674 C 223.053 23.305,222.302 23.003,222.217 23.003 C 222.132 23.003,221.232 22.627,220.216 22.166 C 219.201 21.706,217.903 21.131,217.332 20.888 C 216.761 20.646,215.755 20.217,215.096 19.935 C 213.176 19.115,212.703 18.945,211.182 18.530 C 210.391 18.314,209.385 18.019,208.946 17.876 C 204.463 16.413,200.758 15.350,199.042 15.035 C 197.899 14.825,196.390 14.531,195.687 14.382 C 194.984 14.232,193.546 13.941,192.492 13.736 C 191.438 13.531,190.216 13.290,189.776 13.201 C 186.328 12.505,174.363 12.075,169.169 12.460 " stroke="none" fill="#e26d6d" fill-rule="evenodd"></path><path id="path1" d="M266.943 114.137 C 264.557 115.986,210.863 169.416,210.863 169.941 C 210.863 170.183,214.127 170.298,221.645 170.323 C 227.576 170.342,237.676 170.450,244.089 170.562 L 255.751 170.767 257.508 171.603 C 264.042 174.715,265.643 180.453,264.046 195.048 C 262.979 204.806,262.946 205.031,261.981 209.265 C 261.841 209.880,261.570 211.102,261.380 211.981 C 261.190 212.859,260.831 214.513,260.582 215.655 C 260.053 218.083,256.914 227.632,255.897 229.904 C 255.512 230.765,254.987 231.973,254.730 232.588 C 249.824 244.320,239.257 258.596,230.015 265.974 C 229.575 266.326,228.572 267.129,227.786 267.759 C 223.222 271.417,214.315 276.492,208.786 278.583 C 208.435 278.716,207.603 279.061,206.938 279.349 C 206.273 279.637,205.518 279.872,205.261 279.872 C 205.003 279.872,204.792 280.016,204.792 280.192 C 204.792 280.367,204.477 280.511,204.091 280.511 C 203.441 280.511,203.469 280.594,204.473 281.629 C 205.069 282.244,205.712 282.748,205.901 282.748 C 206.091 282.748,207.317 283.826,208.626 285.144 C 209.935 286.462,211.154 287.541,211.334 287.541 C 211.514 287.542,212.121 287.974,212.682 288.500 C 213.244 289.026,213.895 289.457,214.129 289.457 C 214.364 289.457,214.763 289.744,215.016 290.096 C 215.269 290.447,215.701 290.735,215.974 290.735 C 216.248 290.735,216.680 291.022,216.933 291.374 C 217.186 291.725,217.632 292.013,217.923 292.013 C 218.214 292.013,218.644 292.243,218.877 292.525 C 219.111 292.807,219.596 293.173,219.955 293.338 C 220.913 293.779,221.906 294.375,222.498 294.867 C 223.347 295.571,228.518 298.083,229.120 298.083 C 229.425 298.083,229.764 298.227,229.872 298.403 C 229.981 298.578,230.349 298.722,230.690 298.722 C 231.031 298.722,231.310 298.866,231.310 299.042 C 231.310 299.217,231.741 299.361,232.268 299.361 C 232.796 299.361,233.227 299.505,233.227 299.681 C 233.227 299.856,233.506 300.000,233.847 300.000 C 234.188 300.000,234.556 300.144,234.665 300.319 C 234.773 300.495,235.195 300.639,235.603 300.639 C 236.010 300.639,236.522 300.855,236.741 301.118 C 236.960 301.382,237.472 301.597,237.880 301.597 C 238.287 301.597,238.709 301.741,238.818 301.917 C 238.926 302.093,239.502 302.236,240.096 302.236 C 240.690 302.236,241.265 302.380,241.374 302.556 C 241.482 302.732,242.126 302.875,242.804 302.875 C 243.482 302.875,244.084 303.008,244.143 303.170 C 244.269 303.518,247.490 303.734,247.809 303.415 C 247.931 303.294,248.572 303.195,249.236 303.195 C 249.899 303.195,250.530 303.051,250.639 302.875 C 250.748 302.700,251.117 302.556,251.461 302.556 C 251.804 302.556,252.371 302.412,252.720 302.236 C 253.069 302.061,253.640 301.773,253.989 301.597 C 254.338 301.422,254.905 301.278,255.248 301.278 C 255.592 301.278,255.962 301.134,256.070 300.958 C 256.179 300.783,256.521 300.639,256.831 300.639 C 257.758 300.639,264.922 297.119,268.939 294.691 C 278.863 288.690,287.794 280.144,294.240 270.481 C 301.770 259.192,311.074 236.224,315.800 217.252 C 316.260 215.407,316.771 213.395,316.935 212.780 C 317.264 211.553,318.765 205.300,319.803 200.832 C 320.166 199.268,320.961 195.458,321.569 192.365 C 323.625 181.905,323.975 180.235,324.354 179.073 C 325.488 175.596,329.395 171.246,331.383 171.246 C 331.624 171.246,331.958 171.119,332.125 170.965 C 332.518 170.600,339.345 169.973,343.181 169.950 C 345.677 169.934,349.626 169.486,348.323 169.366 C 348.100 169.345,347.923 168.905,347.923 168.371 C 347.923 167.843,347.780 167.412,347.604 167.412 C 347.428 167.412,347.284 167.125,347.284 166.773 C 347.284 166.422,347.141 166.134,346.965 166.134 C 346.789 166.134,346.645 165.805,346.645 165.404 C 346.645 164.593,343.516 158.156,342.597 157.076 C 341.819 156.162,341.214 155.056,341.214 154.548 C 341.214 154.321,340.927 153.927,340.575 153.674 C 340.224 153.421,339.936 152.958,339.936 152.645 C 339.936 152.332,339.817 152.077,339.671 152.077 C 339.525 152.077,339.201 151.681,338.952 151.198 C 338.702 150.715,338.247 150.041,337.939 149.700 C 337.632 149.359,337.380 148.919,337.380 148.722 C 337.380 148.524,336.949 147.949,336.422 147.444 C 335.895 146.939,335.463 146.367,335.463 146.173 C 335.463 145.979,334.816 145.185,334.026 144.409 C 333.235 143.633,332.588 142.850,332.588 142.669 C 332.588 142.234,323.269 132.907,322.834 132.907 C 322.649 132.907,321.862 132.260,321.086 131.470 C 320.310 130.679,319.516 130.032,319.322 130.032 C 319.128 130.032,318.556 129.601,318.051 129.073 C 317.546 128.546,316.904 128.115,316.624 128.115 C 316.344 128.115,315.908 127.827,315.655 127.476 C 315.402 127.125,314.970 126.837,314.696 126.837 C 314.423 126.837,313.991 126.550,313.738 126.198 C 313.485 125.847,313.017 125.559,312.699 125.559 C 312.381 125.559,312.038 125.343,311.937 125.080 C 311.835 124.816,311.481 124.601,311.148 124.601 C 310.815 124.601,310.543 124.477,310.543 124.326 C 310.543 124.015,302.928 120.123,302.326 120.126 C 302.112 120.127,301.424 119.840,300.799 119.489 C 300.173 119.137,299.306 118.850,298.872 118.850 C 298.438 118.850,298.083 118.706,298.083 118.530 C 298.083 118.355,297.660 118.211,297.143 118.211 C 296.627 118.211,296.115 118.067,296.006 117.891 C 295.898 117.716,295.476 117.572,295.068 117.572 C 294.661 117.572,294.148 117.356,293.930 117.093 C 293.711 116.829,293.199 116.613,292.791 116.613 C 292.384 116.613,291.962 116.470,291.853 116.294 C 291.744 116.118,291.169 115.974,290.575 115.974 C 289.981 115.974,289.406 115.831,289.297 115.655 C 289.189 115.479,288.533 115.335,287.841 115.335 C 287.148 115.335,286.581 115.192,286.581 115.016 C 286.581 114.840,285.871 114.696,285.003 114.696 C 284.135 114.696,283.335 114.553,283.227 114.377 C 283.118 114.201,281.888 114.058,280.492 114.058 C 279.014 114.058,277.955 113.924,277.955 113.738 C 277.955 112.988,267.958 113.351,266.943 114.137 " stroke="none" fill="#70d169" fill-rule="evenodd"></path><path id="path2" d="M162.220 0.218 C 160.859 0.288,159.744 0.484,159.744 0.652 C 159.744 0.821,158.738 0.958,157.508 0.958 C 156.278 0.958,155.272 1.087,155.272 1.244 C 155.272 1.402,154.732 1.606,154.073 1.698 C 153.415 1.790,152.264 2.020,151.518 2.210 C 150.771 2.400,149.621 2.675,148.962 2.819 C 148.303 2.964,147.450 3.252,147.066 3.458 C 146.682 3.665,146.071 3.834,145.708 3.834 C 145.345 3.834,145.048 3.978,145.048 4.153 C 145.048 4.329,144.617 4.473,144.089 4.473 C 143.562 4.473,143.131 4.617,143.131 4.792 C 143.131 4.968,142.700 5.112,142.173 5.112 C 141.645 5.112,141.214 5.256,141.214 5.431 C 141.214 5.607,140.855 5.751,140.415 5.751 C 139.976 5.751,139.617 5.895,139.617 6.070 C 139.617 6.246,139.185 6.390,138.658 6.390 C 138.131 6.390,137.700 6.534,137.700 6.709 C 137.700 6.885,137.349 7.029,136.920 7.029 C 136.491 7.029,136.051 7.173,135.942 7.348 C 135.834 7.524,135.466 7.668,135.125 7.668 C 134.784 7.668,134.505 7.812,134.505 7.987 C 134.505 8.163,134.217 8.307,133.866 8.307 C 133.514 8.307,133.227 8.450,133.227 8.626 C 133.227 8.802,133.025 8.946,132.778 8.946 C 132.532 8.946,131.440 9.449,130.351 10.064 C 129.263 10.679,128.243 11.182,128.084 11.182 C 127.925 11.182,127.796 11.326,127.796 11.502 C 127.796 11.677,127.508 11.821,127.157 11.821 C 126.805 11.821,126.518 11.965,126.518 12.141 C 126.518 12.316,126.302 12.460,126.038 12.460 C 125.775 12.460,125.559 12.604,125.559 12.780 C 125.559 12.955,125.371 13.099,125.140 13.099 C 124.910 13.099,124.412 13.387,124.035 13.738 C 123.658 14.089,123.159 14.377,122.927 14.377 C 122.695 14.377,122.298 14.665,122.045 15.016 C 121.791 15.367,121.381 15.655,121.133 15.655 C 120.885 15.655,120.449 15.907,120.165 16.214 C 119.881 16.522,119.456 16.814,119.220 16.863 C 118.675 16.977,116.613 18.611,116.613 18.930 C 116.613 19.062,116.455 19.169,116.262 19.169 C 116.069 19.169,115.508 19.601,115.016 20.128 C 114.524 20.655,113.997 21.086,113.846 21.086 C 113.478 21.086,111.120 23.126,109.302 25.017 C 108.491 25.860,106.282 28.115,104.393 30.026 C 102.504 31.937,100.958 33.666,100.958 33.868 C 100.958 34.070,100.419 34.763,99.760 35.408 C 99.101 36.054,98.358 36.977,98.109 37.460 C 97.860 37.943,97.536 38.339,97.390 38.339 C 97.244 38.339,97.125 38.635,97.125 38.996 C 97.125 39.358,96.981 39.565,96.805 39.457 C 96.629 39.348,96.486 39.484,96.486 39.758 C 96.486 40.031,96.373 40.256,96.235 40.256 C 96.097 40.256,95.709 40.723,95.372 41.294 C 95.036 41.865,94.502 42.611,94.185 42.952 C 93.869 43.292,93.610 43.760,93.610 43.990 C 93.610 44.220,93.466 44.409,93.291 44.409 C 93.115 44.409,92.971 44.696,92.971 45.048 C 92.971 45.399,92.854 45.687,92.711 45.687 C 92.568 45.687,92.254 46.190,92.013 46.805 C 91.771 47.420,91.457 47.923,91.314 47.923 C 91.171 47.923,91.054 48.211,91.054 48.562 C 91.054 48.914,90.911 49.201,90.735 49.201 C 90.559 49.201,90.415 49.489,90.415 49.840 C 90.415 50.192,90.272 50.479,90.096 50.479 C 89.920 50.479,89.776 50.767,89.776 51.118 C 89.776 51.470,89.633 51.757,89.457 51.757 C 89.281 51.757,89.137 52.045,89.137 52.396 C 89.137 52.748,88.994 53.035,88.818 53.035 C 88.642 53.035,88.498 53.323,88.498 53.674 C 88.498 54.026,88.387 54.313,88.252 54.313 C 88.116 54.313,87.778 54.780,87.500 55.351 C 87.223 55.923,86.687 57.014,86.309 57.778 C 85.932 58.541,85.623 59.440,85.623 59.775 C 85.623 60.109,85.479 60.383,85.304 60.383 C 85.128 60.383,84.984 60.671,84.984 61.022 C 84.984 61.374,84.840 61.661,84.665 61.661 C 84.489 61.661,84.345 61.949,84.345 62.300 C 84.345 62.652,84.201 62.939,84.026 62.939 C 83.850 62.939,83.706 63.299,83.706 63.738 C 83.706 64.177,83.562 64.537,83.387 64.537 C 83.211 64.537,83.067 64.968,83.067 65.495 C 83.067 66.022,82.923 66.454,82.748 66.454 C 82.572 66.454,82.428 66.741,82.428 67.093 C 82.428 67.444,82.284 67.732,82.109 67.732 C 81.933 67.732,81.789 68.163,81.789 68.690 C 81.789 69.217,81.645 69.649,81.470 69.649 C 81.294 69.649,81.150 69.946,81.150 70.310 C 81.150 70.674,80.935 71.188,80.671 71.451 C 80.407 71.715,80.192 72.208,80.192 72.547 C 80.192 72.886,80.074 73.163,79.930 73.163 C 79.786 73.163,79.470 73.891,79.228 74.781 C 78.985 75.670,78.672 76.470,78.531 76.557 C 78.390 76.644,78.275 77.138,78.275 77.655 C 78.275 78.171,78.131 78.594,77.955 78.594 C 77.780 78.594,77.636 79.026,77.636 79.553 C 77.636 80.080,77.492 80.511,77.316 80.511 C 77.141 80.511,76.997 80.942,76.997 81.470 C 76.997 81.997,76.853 82.428,76.677 82.428 C 76.502 82.428,76.358 82.859,76.358 83.387 C 76.358 83.914,76.214 84.345,76.038 84.345 C 75.863 84.345,75.719 84.768,75.719 85.285 C 75.719 85.801,75.575 86.313,75.399 86.422 C 75.224 86.530,75.080 87.034,75.080 87.540 C 75.080 88.046,74.936 88.550,74.760 88.658 C 74.585 88.767,74.441 89.350,74.441 89.955 C 74.441 90.560,74.297 91.054,74.121 91.054 C 73.946 91.054,73.802 91.477,73.802 91.994 C 73.802 92.511,73.658 93.022,73.482 93.131 C 73.307 93.240,73.163 93.693,73.163 94.139 C 73.163 94.585,72.966 95.331,72.724 95.797 C 72.082 97.040,71.565 98.808,71.565 99.764 C 71.565 100.225,71.422 100.690,71.246 100.799 C 71.070 100.907,70.927 101.482,70.927 102.077 C 70.927 102.671,70.798 103.237,70.641 103.334 C 70.371 103.500,70.273 103.949,69.782 107.270 C 69.672 108.018,69.452 108.710,69.295 108.807 C 69.138 108.904,69.010 109.542,69.010 110.224 C 69.010 110.906,68.866 111.553,68.690 111.661 C 68.514 111.770,68.371 112.425,68.371 113.118 C 68.371 113.810,68.227 114.377,68.051 114.377 C 67.875 114.377,67.732 114.944,67.732 115.636 C 67.732 116.329,67.588 116.984,67.412 117.093 C 67.236 117.201,67.093 117.848,67.093 118.530 C 67.093 119.212,66.949 119.859,66.773 119.968 C 66.597 120.077,66.454 120.876,66.454 121.744 C 66.454 122.612,66.310 123.323,66.134 123.323 C 65.958 123.323,65.815 124.030,65.815 124.894 C 65.815 125.757,65.661 126.516,65.473 126.578 C 65.286 126.641,65.106 127.407,65.074 128.282 C 65.042 129.157,64.884 129.968,64.723 130.084 C 64.443 130.286,64.064 132.110,63.687 135.064 L 63.514 136.422 33.354 136.422 C 13.461 136.422,3.195 136.530,3.195 136.741 C 3.195 136.917,2.934 137.061,2.616 137.061 C -0.439 137.061,-1.193 148.131,1.856 148.229 C 2.086 148.237,2.214 148.351,2.141 148.482 C 1.964 148.798,4.035 150.811,4.282 150.564 C 4.387 150.459,4.473 150.621,4.473 150.924 C 4.473 151.227,4.617 151.387,4.792 151.278 C 4.968 151.169,5.112 151.313,5.112 151.597 C 5.112 151.882,5.256 152.026,5.431 151.917 C 5.607 151.808,5.751 151.952,5.751 152.236 C 5.751 152.521,5.859 152.692,5.990 152.617 C 6.306 152.437,7.683 153.872,7.434 154.121 C 7.328 154.227,7.505 154.313,7.827 154.313 C 8.150 154.313,8.332 154.395,8.232 154.494 C 8.062 154.665,66.129 212.949,69.410 215.901 C 70.244 216.652,70.927 217.406,70.927 217.578 C 70.927 217.751,71.151 217.891,71.425 217.891 C 71.699 217.891,71.857 217.999,71.778 218.131 C 71.698 218.263,71.833 218.556,72.078 218.783 C 72.323 219.009,72.524 219.136,72.524 219.065 C 72.524 218.957,77.644 224.166,78.796 225.447 C 78.995 225.667,79.246 225.759,79.355 225.650 C 79.464 225.542,79.570 225.656,79.592 225.905 C 79.614 226.154,81.175 227.828,83.061 229.624 C 84.948 231.421,86.416 232.967,86.323 233.059 C 86.231 233.151,86.419 233.227,86.741 233.227 C 87.063 233.227,87.254 233.299,87.166 233.388 C 86.947 233.606,94.346 241.094,94.649 240.962 C 94.780 240.904,94.888 241.105,94.888 241.408 C 94.888 241.711,94.979 241.869,95.090 241.757 C 95.202 241.646,95.572 241.911,95.915 242.346 C 96.257 242.781,96.673 243.053,96.839 242.951 C 97.005 242.848,97.101 242.902,97.053 243.070 C 97.004 243.238,97.935 244.331,99.121 245.499 C 100.308 246.667,101.278 247.528,101.278 247.414 C 101.278 247.300,101.516 247.403,101.806 247.645 C 102.097 247.886,102.384 248.047,102.445 248.003 C 102.736 247.794,103.212 247.957,103.054 248.212 C 102.953 248.376,103.997 248.501,105.453 248.501 C 107.367 248.501,108.075 248.386,108.202 248.054 C 108.296 247.809,108.495 247.682,108.643 247.774 C 108.791 247.865,109.563 247.289,110.358 246.494 C 111.154 245.699,111.929 245.048,112.081 245.048 C 112.233 245.048,112.525 244.680,112.730 244.231 C 112.934 243.782,113.209 243.474,113.340 243.547 C 113.645 243.717,115.670 241.655,115.432 241.417 C 115.333 241.319,115.631 241.066,116.093 240.855 C 116.555 240.645,116.933 240.338,116.933 240.173 C 116.933 239.840,119.784 237.061,120.125 237.061 C 120.243 237.061,120.532 236.701,120.767 236.262 C 121.001 235.823,121.257 235.528,121.335 235.605 C 121.474 235.744,123.206 233.992,125.719 231.170 C 126.422 230.381,127.098 229.730,127.221 229.724 C 127.489 229.710,132.268 224.966,132.268 224.713 C 132.268 224.427,135.220 221.725,135.533 221.725 C 135.691 221.725,135.732 221.581,135.623 221.406 C 135.514 221.230,135.583 221.086,135.775 221.086 C 136.228 221.086,138.339 218.976,138.339 218.522 C 138.339 218.330,138.482 218.262,138.658 218.371 C 138.834 218.479,138.978 218.335,138.978 218.051 C 138.978 217.767,139.121 217.623,139.297 217.732 C 139.473 217.840,139.617 217.800,139.617 217.642 C 139.617 217.308,142.327 214.377,142.636 214.377 C 142.749 214.377,143.844 213.335,145.068 212.061 C 146.292 210.787,148.018 208.990,148.905 208.067 C 149.792 207.145,150.661 206.390,150.836 206.390 C 151.012 206.390,151.067 206.246,150.958 206.070 C 150.850 205.895,150.994 205.751,151.278 205.751 C 151.562 205.751,151.706 205.607,151.597 205.431 C 151.489 205.256,151.539 205.112,151.709 205.112 C 152.073 205.112,154.946 202.376,154.966 202.009 C 154.974 201.870,155.772 201.038,156.740 200.160 C 160.315 196.914,161.661 195.560,161.661 195.210 C 161.661 195.012,161.805 194.939,161.981 195.048 C 162.157 195.157,162.300 195.102,162.300 194.926 C 162.300 194.750,163.055 193.881,163.978 192.994 C 164.900 192.108,166.697 190.381,167.971 189.157 C 169.245 187.933,170.288 186.841,170.288 186.729 C 170.288 186.415,173.850 183.067,174.183 183.067 C 174.346 183.067,174.390 182.923,174.281 182.748 C 174.173 182.572,174.245 182.428,174.443 182.428 C 174.793 182.428,176.147 181.082,179.393 177.507 C 180.272 176.539,181.102 175.741,181.238 175.733 C 181.631 175.711,184.345 172.898,184.345 172.514 C 184.345 172.323,184.489 172.256,184.665 172.364 C 184.840 172.473,184.984 172.422,184.984 172.251 C 184.984 171.923,187.393 169.479,190.855 166.294 C 192.001 165.240,192.946 164.266,192.955 164.130 C 192.976 163.809,196.397 160.388,196.718 160.367 C 196.854 160.358,197.827 159.415,198.882 158.271 C 201.465 155.470,203.793 153.139,205.550 151.597 C 206.351 150.895,207.011 150.131,207.017 149.901 C 207.024 149.671,207.173 149.572,207.348 149.681 C 207.524 149.789,207.668 149.743,207.668 149.578 C 207.668 149.413,208.243 148.686,208.946 147.961 C 209.649 147.237,210.224 146.429,210.224 146.166 C 210.224 145.902,210.367 145.687,210.543 145.687 C 210.734 145.687,210.863 144.462,210.863 142.652 C 210.863 140.841,210.734 139.617,210.543 139.617 C 210.367 139.617,210.224 139.394,210.224 139.123 C 210.224 138.411,208.769 137.061,208.002 137.061 C 207.642 137.061,207.348 136.917,207.348 136.741 C 207.348 136.530,197.178 136.422,177.476 136.422 C 148.120 136.422,147.604 136.411,147.604 135.802 C 147.604 135.461,147.748 135.093,147.923 134.984 C 148.118 134.864,148.243 132.478,148.243 128.895 C 148.243 125.180,148.361 123.003,148.562 123.003 C 148.750 123.003,148.882 121.885,148.882 120.288 C 148.882 118.690,149.013 117.572,149.201 117.572 C 149.377 117.572,149.521 116.865,149.521 116.001 C 149.521 115.137,149.674 114.379,149.862 114.316 C 150.050 114.254,150.230 113.487,150.262 112.612 C 150.293 111.738,150.485 110.879,150.688 110.703 C 150.890 110.527,151.138 109.880,151.237 109.265 C 151.729 106.237,151.849 105.732,152.112 105.569 C 152.268 105.473,152.396 104.890,152.396 104.275 C 152.396 103.611,152.526 103.237,152.716 103.355 C 152.902 103.470,153.035 103.145,153.035 102.575 C 153.035 102.037,153.179 101.597,153.355 101.597 C 153.530 101.597,153.674 101.166,153.674 100.639 C 153.674 100.112,153.818 99.681,153.994 99.681 C 154.169 99.681,154.313 99.258,154.313 98.741 C 154.313 98.224,154.457 97.712,154.633 97.604 C 154.808 97.495,154.952 96.984,154.952 96.467 C 154.952 95.950,155.096 95.527,155.272 95.527 C 155.447 95.527,155.591 95.240,155.591 94.888 C 155.591 94.537,155.735 94.249,155.911 94.249 C 156.086 94.249,156.230 93.818,156.230 93.291 C 156.230 92.764,156.374 92.332,156.550 92.332 C 156.725 92.332,156.869 92.045,156.869 91.693 C 156.869 91.342,157.013 91.054,157.188 91.054 C 157.364 91.054,157.508 90.767,157.508 90.415 C 157.508 90.064,157.616 89.775,157.748 89.774 C 158.069 89.772,159.105 87.924,159.105 87.354 C 159.105 87.105,159.249 86.901,159.425 86.901 C 159.601 86.901,159.744 86.613,159.744 86.262 C 159.744 85.911,159.888 85.623,160.064 85.623 C 160.240 85.623,160.383 85.401,160.383 85.130 C 160.383 84.859,160.671 84.329,161.022 83.952 C 161.374 83.575,161.661 83.078,161.661 82.847 C 161.661 82.617,161.805 82.428,161.981 82.428 C 162.157 82.428,162.300 82.141,162.300 81.789 C 162.300 81.438,162.444 81.150,162.620 81.150 C 162.796 81.150,162.939 80.935,162.939 80.671 C 162.939 80.407,163.083 80.192,163.259 80.192 C 163.435 80.192,163.578 79.936,163.578 79.623 C 163.578 79.311,163.866 78.848,164.217 78.594 C 164.569 78.341,164.856 77.964,164.856 77.757 C 164.856 77.550,165.323 76.893,165.895 76.297 C 166.466 75.702,167.220 74.802,167.572 74.299 C 167.923 73.795,168.606 72.960,169.088 72.442 C 169.571 71.924,169.872 71.349,169.758 71.164 C 169.636 70.967,169.703 70.922,169.919 71.056 C 170.122 71.181,170.288 71.146,170.288 70.978 C 170.288 70.613,172.559 68.309,175.534 65.655 C 176.716 64.601,178.171 63.271,178.767 62.700 C 179.363 62.129,179.998 61.661,180.177 61.661 C 180.467 61.661,181.067 61.240,182.224 60.224 C 182.424 60.048,182.983 59.700,183.466 59.451 C 183.950 59.201,184.345 58.878,184.345 58.732 C 184.345 58.586,184.546 58.466,184.791 58.466 C 185.036 58.466,185.575 58.110,185.989 57.673 C 186.403 57.237,186.921 56.878,187.141 56.875 C 187.360 56.871,187.540 56.725,187.540 56.550 C 187.540 56.374,187.819 56.230,188.160 56.230 C 188.501 56.230,188.869 56.086,188.978 55.911 C 189.086 55.735,189.454 55.591,189.795 55.591 C 190.136 55.591,190.415 55.447,190.415 55.272 C 190.415 55.096,190.703 54.952,191.054 54.952 C 191.406 54.952,191.693 54.808,191.693 54.633 C 191.693 54.457,191.981 54.313,192.332 54.313 C 192.684 54.313,192.971 54.169,192.971 53.994 C 192.971 53.818,193.259 53.674,193.610 53.674 C 193.962 53.674,194.249 53.530,194.249 53.355 C 194.249 53.179,194.539 53.035,194.893 53.035 C 195.246 53.035,195.821 52.891,196.170 52.716 C 196.520 52.540,197.091 52.252,197.440 52.077 C 197.789 51.901,198.355 51.757,198.699 51.757 C 199.042 51.757,199.412 51.613,199.521 51.438 C 199.629 51.262,200.061 51.118,200.479 51.118 C 200.898 51.118,201.329 50.974,201.438 50.799 C 201.546 50.623,201.978 50.479,202.396 50.479 C 202.815 50.479,203.236 50.352,203.332 50.197 C 203.428 50.041,204.155 49.817,204.948 49.698 C 205.741 49.579,206.390 49.347,206.390 49.182 C 206.390 49.017,206.956 48.882,207.649 48.882 C 208.341 48.882,208.997 48.738,209.105 48.562 C 209.214 48.387,210.229 48.243,211.361 48.243 C 212.520 48.243,213.419 48.103,213.419 47.923 C 213.419 47.733,214.643 47.604,216.454 47.604 C 218.264 47.604,219.489 47.475,219.489 47.284 C 219.489 47.081,221.991 46.965,226.358 46.965 C 230.724 46.965,233.227 47.081,233.227 47.284 C 233.227 47.477,234.552 47.604,236.563 47.604 C 238.442 47.604,239.985 47.743,240.096 47.923 C 240.204 48.099,241.211 48.243,242.332 48.243 C 243.454 48.243,244.460 48.387,244.569 48.562 C 244.677 48.738,245.548 48.882,246.504 48.882 C 247.461 48.882,248.243 49.015,248.243 49.178 C 248.243 49.341,249.035 49.574,250.004 49.695 C 250.973 49.816,251.844 50.042,251.940 50.197 C 252.036 50.352,252.672 50.479,253.355 50.479 C 254.037 50.479,254.684 50.623,254.792 50.799 C 254.901 50.974,255.476 51.118,256.070 51.118 C 256.665 51.118,257.240 51.262,257.348 51.438 C 257.457 51.613,258.040 51.757,258.645 51.757 C 259.250 51.757,259.744 51.901,259.744 52.077 C 259.744 52.252,260.239 52.396,260.844 52.396 C 261.448 52.396,262.032 52.540,262.141 52.716 C 262.249 52.891,262.752 53.035,263.259 53.035 C 263.765 53.035,264.268 53.179,264.377 53.355 C 264.486 53.530,264.997 53.674,265.514 53.674 C 266.031 53.674,266.454 53.818,266.454 53.994 C 266.454 54.169,266.885 54.313,267.412 54.313 C 267.939 54.313,268.371 54.457,268.371 54.633 C 268.371 54.808,268.802 54.952,269.329 54.952 C 269.856 54.952,270.288 55.096,270.288 55.272 C 270.288 55.447,270.710 55.591,271.227 55.591 C 271.744 55.591,272.256 55.735,272.364 55.911 C 272.473 56.086,272.984 56.230,273.501 56.230 C 274.018 56.230,274.441 56.374,274.441 56.550 C 274.441 56.725,274.728 56.869,275.080 56.869 C 275.431 56.869,275.719 57.003,275.719 57.167 C 275.719 57.331,276.042 57.556,276.438 57.666 C 277.209 57.882,278.412 58.367,279.309 58.823 C 279.614 58.978,280.153 59.105,280.507 59.105 C 280.861 59.105,281.150 59.249,281.150 59.425 C 281.150 59.601,281.501 59.744,281.930 59.744 C 282.359 59.744,282.799 59.888,282.907 60.064 C 283.016 60.240,283.384 60.383,283.725 60.383 C 284.066 60.383,284.345 60.527,284.345 60.703 C 284.345 60.879,284.563 61.022,284.829 61.022 C 285.095 61.022,285.598 61.166,285.947 61.342 C 286.296 61.518,286.867 61.805,287.216 61.981 C 287.565 62.157,288.140 62.300,288.494 62.300 C 288.848 62.300,289.137 62.444,289.137 62.620 C 289.137 62.796,289.425 62.939,289.776 62.939 C 290.128 62.939,290.415 63.083,290.415 63.259 C 290.415 63.435,290.703 63.578,291.054 63.578 C 291.406 63.578,291.693 63.722,291.693 63.898 C 291.693 64.073,291.877 64.217,292.101 64.217 C 292.325 64.217,293.787 64.864,295.350 65.655 C 296.912 66.446,298.382 67.093,298.616 67.093 C 298.850 67.093,299.042 67.236,299.042 67.412 C 299.042 67.588,299.329 67.732,299.681 67.732 C 300.032 67.732,300.319 67.875,300.319 68.051 C 300.319 68.227,300.607 68.371,300.958 68.371 C 301.310 68.371,301.597 68.514,301.597 68.690 C 301.597 68.866,301.885 69.010,302.236 69.010 C 302.588 69.010,302.875 69.153,302.875 69.329 C 302.875 69.505,303.087 69.649,303.345 69.649 C 303.603 69.649,304.326 69.936,304.952 70.288 C 305.578 70.639,306.453 70.927,306.898 70.927 C 307.355 70.927,307.620 71.065,307.508 71.246 C 307.384 71.447,308.090 71.565,309.406 71.565 C 310.590 71.565,311.502 71.427,311.502 71.246 C 311.502 71.070,311.789 70.927,312.141 70.927 C 312.492 70.927,312.780 70.783,312.780 70.607 C 312.780 70.431,312.930 70.288,313.114 70.288 C 313.626 70.288,315.016 68.781,315.016 68.225 C 315.016 67.954,315.160 67.732,315.335 67.732 C 315.526 67.732,315.655 66.507,315.655 64.696 C 315.655 62.886,315.526 61.661,315.335 61.661 C 315.160 61.661,315.016 61.489,315.016 61.279 C 315.016 60.755,313.395 59.105,312.880 59.105 C 312.649 59.105,312.460 58.962,312.460 58.786 C 312.460 58.610,312.244 58.466,311.981 58.466 C 311.717 58.466,311.502 58.323,311.502 58.147 C 311.502 57.971,311.214 57.827,310.863 57.827 C 310.511 57.827,310.224 57.684,310.224 57.508 C 310.224 57.332,309.951 57.188,309.619 57.188 C 309.286 57.188,308.931 56.973,308.830 56.709 C 308.729 56.446,308.438 56.230,308.184 56.230 C 307.929 56.230,307.673 56.109,307.614 55.962 C 307.556 55.815,306.358 55.073,304.952 54.313 C 303.546 53.554,302.348 52.811,302.290 52.664 C 302.231 52.517,301.908 52.396,301.571 52.396 C 301.234 52.396,300.958 52.252,300.958 52.077 C 300.958 51.901,300.671 51.757,300.319 51.757 C 299.968 51.757,299.681 51.613,299.681 51.438 C 299.681 51.262,299.465 51.118,299.201 51.118 C 298.938 51.118,298.721 51.010,298.720 50.879 C 298.717 50.600,297.177 49.840,296.616 49.840 C 296.406 49.840,296.152 49.625,296.051 49.361 C 295.949 49.097,295.647 48.882,295.377 48.882 C 295.108 48.882,294.888 48.755,294.888 48.601 C 294.888 48.447,294.457 48.142,293.930 47.923 C 293.403 47.705,292.971 47.400,292.971 47.246 C 292.971 47.091,292.684 46.965,292.332 46.965 C 291.981 46.965,291.693 46.821,291.693 46.645 C 291.693 46.470,291.406 46.326,291.054 46.326 C 290.703 46.326,290.415 46.182,290.415 46.006 C 290.415 45.831,290.200 45.687,289.936 45.687 C 289.673 45.687,289.457 45.543,289.457 45.367 C 289.457 45.192,289.169 45.048,288.818 45.048 C 288.466 45.048,288.179 44.904,288.179 44.728 C 288.179 44.553,287.957 44.409,287.686 44.409 C 287.415 44.409,286.885 44.121,286.508 43.770 C 286.131 43.419,285.633 43.131,285.403 43.131 C 285.173 43.131,284.984 42.987,284.984 42.812 C 284.984 42.636,284.696 42.492,284.345 42.492 C 283.994 42.492,283.706 42.348,283.706 42.173 C 283.706 41.997,283.419 41.853,283.067 41.853 C 282.716 41.853,282.428 41.707,282.428 41.528 C 282.428 41.350,281.925 40.964,281.310 40.670 C 280.695 40.377,280.192 40.020,280.192 39.877 C 280.192 39.734,279.916 39.617,279.579 39.617 C 279.243 39.617,278.919 39.509,278.860 39.377 C 278.727 39.077,277.025 38.040,276.278 37.802 C 275.970 37.705,275.719 37.498,275.719 37.343 C 275.719 37.188,275.431 37.061,275.080 37.061 C 274.728 37.061,274.441 36.944,274.441 36.801 C 274.441 36.658,273.938 36.344,273.323 36.102 C 272.708 35.861,272.204 35.547,272.204 35.404 C 272.204 35.261,271.917 35.144,271.565 35.144 C 271.214 35.144,270.927 35.000,270.927 34.824 C 270.927 34.649,270.718 34.505,270.464 34.505 C 270.209 34.505,269.652 34.181,269.225 33.786 C 268.404 33.025,265.962 31.629,265.452 31.629 C 265.285 31.629,264.840 31.342,264.463 30.990 C 264.086 30.639,263.589 30.351,263.358 30.351 C 263.128 30.351,262.939 30.208,262.939 30.032 C 262.939 29.856,262.652 29.712,262.300 29.712 C 261.949 29.712,261.661 29.585,261.661 29.430 C 261.661 29.275,261.410 29.066,261.102 28.965 C 260.795 28.864,259.928 28.416,259.177 27.969 C 258.425 27.522,257.664 27.157,257.485 27.157 C 257.306 27.157,256.816 26.814,256.397 26.394 C 255.978 25.975,255.194 25.437,254.655 25.198 C 254.115 24.959,253.674 24.655,253.674 24.523 C 253.674 24.390,253.387 24.281,253.035 24.281 C 252.684 24.281,252.396 24.164,252.396 24.021 C 252.396 23.878,251.893 23.564,251.278 23.323 C 250.663 23.081,250.160 22.767,250.160 22.624 C 250.160 22.481,249.872 22.364,249.521 22.364 C 249.169 22.364,248.882 22.220,248.882 22.045 C 248.882 21.869,248.693 21.725,248.463 21.725 C 248.232 21.725,247.735 21.438,247.358 21.086 C 246.981 20.735,246.450 20.447,246.179 20.447 C 245.909 20.447,245.687 20.304,245.687 20.128 C 245.687 19.952,245.399 19.808,245.048 19.808 C 244.696 19.808,244.409 19.665,244.409 19.489 C 244.409 19.313,244.121 19.169,243.770 19.169 C 243.419 19.169,243.131 19.036,243.131 18.874 C 243.131 18.712,242.340 18.179,241.374 17.689 C 240.407 17.200,239.617 16.686,239.617 16.547 C 239.617 16.408,239.329 16.294,238.978 16.294 C 238.626 16.294,238.339 16.150,238.339 15.974 C 238.339 15.799,238.127 15.655,237.869 15.655 C 237.611 15.655,236.888 15.367,236.262 15.016 C 235.636 14.665,234.913 14.377,234.655 14.377 C 234.397 14.377,234.185 14.233,234.185 14.058 C 234.185 13.882,233.898 13.738,233.546 13.738 C 233.195 13.738,232.907 13.594,232.907 13.419 C 232.907 13.243,232.620 13.099,232.268 13.099 C 231.917 13.099,231.629 12.955,231.629 12.780 C 231.629 12.604,231.270 12.460,230.831 12.460 C 230.391 12.460,230.032 12.316,230.032 12.141 C 230.032 11.965,229.685 11.821,229.260 11.821 C 228.835 11.821,228.440 11.696,228.381 11.543 C 228.247 11.192,224.743 9.585,224.112 9.585 C 223.854 9.585,223.642 9.441,223.642 9.265 C 223.642 9.089,223.353 8.946,222.999 8.946 C 222.645 8.946,222.070 8.802,221.721 8.626 C 221.372 8.450,220.801 8.163,220.452 7.987 C 220.103 7.812,219.597 7.668,219.329 7.668 C 219.061 7.668,218.556 7.524,218.207 7.348 C 217.857 7.173,217.286 6.885,216.937 6.709 C 216.588 6.534,215.861 6.390,215.321 6.390 C 214.748 6.390,214.421 6.257,214.537 6.070 C 214.652 5.884,214.327 5.751,213.757 5.751 C 213.219 5.751,212.780 5.607,212.780 5.431 C 212.780 5.256,212.204 5.112,211.502 5.112 C 210.799 5.112,210.224 4.968,210.224 4.792 C 210.224 4.617,209.792 4.473,209.265 4.473 C 208.738 4.473,208.307 4.329,208.307 4.153 C 208.307 3.978,207.839 3.829,207.268 3.824 C 206.697 3.818,205.951 3.602,205.610 3.344 C 205.269 3.086,204.522 2.875,203.951 2.875 C 203.380 2.875,202.834 2.747,202.737 2.590 C 202.568 2.316,201.552 2.112,198.403 1.716 C 197.612 1.617,196.828 1.406,196.661 1.247 C 196.494 1.088,195.625 0.958,194.728 0.958 C 193.832 0.958,192.927 0.787,192.717 0.576 C 192.336 0.196,168.120 -0.089,162.220 0.218 M185.304 12.729 C 187.324 12.900,189.337 13.113,189.776 13.201 C 190.216 13.290,191.438 13.531,192.492 13.736 C 193.546 13.941,194.984 14.232,195.687 14.382 C 196.390 14.531,197.899 14.825,199.042 15.035 C 200.758 15.350,204.463 16.413,208.946 17.876 C 209.385 18.019,210.391 18.314,211.182 18.530 C 212.703 18.945,213.176 19.115,215.096 19.935 C 215.755 20.217,216.761 20.646,217.332 20.888 C 217.903 21.131,219.201 21.706,220.216 22.166 C 221.232 22.627,222.132 23.003,222.217 23.003 C 222.302 23.003,223.053 23.305,223.885 23.674 C 226.383 24.781,226.989 25.071,227.157 25.241 C 227.244 25.330,228.179 25.849,229.233 26.393 C 230.288 26.938,232.063 27.907,233.178 28.548 C 234.293 29.188,235.335 29.712,235.494 29.712 C 235.653 29.712,235.783 29.839,235.783 29.995 C 235.783 30.150,236.048 30.346,236.373 30.431 C 236.876 30.563,239.297 34.798,239.297 35.546 C 239.297 35.859,232.151 35.825,230.501 35.505 C 229.792 35.367,226.413 35.370,222.993 35.511 C 214.578 35.857,208.914 36.543,202.236 38.025 C 201.621 38.161,200.615 38.374,200.000 38.498 C 196.798 39.143,189.010 42.075,184.345 44.391 C 175.355 48.856,166.655 55.665,160.330 63.189 C 159.042 64.721,157.912 66.046,157.819 66.134 C 157.140 66.775,151.438 74.866,151.438 75.189 C 151.438 75.269,150.838 76.319,150.105 77.523 C 148.980 79.371,145.372 86.645,144.384 89.058 C 143.126 92.130,142.541 93.734,141.328 97.444 C 140.257 100.719,138.762 106.571,137.860 111.022 C 137.753 111.550,137.530 112.628,137.365 113.419 C 135.977 120.054,134.999 136.706,135.819 139.739 C 137.053 144.308,140.319 147.522,144.747 148.524 C 145.579 148.712,155.003 148.912,167.540 149.007 C 179.295 149.096,189.036 149.291,189.185 149.441 C 189.418 149.674,137.738 201.495,113.501 225.331 L 105.449 233.250 101.376 229.325 C 83.405 212.007,22.161 150.224,22.579 149.835 C 22.868 149.565,50.050 148.873,60.132 148.879 C 71.087 148.884,74.537 146.338,76.359 136.901 C 76.563 135.847,76.850 134.409,76.997 133.706 C 77.144 133.003,77.432 131.565,77.636 130.511 C 77.840 129.457,78.128 128.019,78.275 127.316 C 78.423 126.613,78.707 125.176,78.907 124.121 C 79.298 122.059,79.750 120.103,81.788 111.661 C 84.399 100.852,84.740 99.490,85.314 97.604 C 85.634 96.550,86.209 94.609,86.592 93.291 C 86.974 91.973,87.410 90.535,87.561 90.096 C 87.711 89.657,88.636 86.925,89.615 84.026 C 90.594 81.126,91.515 78.466,91.661 78.115 C 91.808 77.764,92.071 77.117,92.247 76.677 C 92.422 76.238,92.716 75.519,92.899 75.080 C 93.083 74.641,93.737 72.987,94.353 71.406 C 96.070 67.001,99.602 59.580,102.695 53.880 C 111.032 38.512,127.812 23.996,144.089 18.070 C 149.932 15.943,149.393 16.115,153.674 15.021 C 154.465 14.819,155.543 14.533,156.070 14.386 C 156.970 14.134,157.784 13.990,163.419 13.082 C 169.017 12.180,177.259 12.046,185.304 12.729 " stroke="none" fill="#9f1a1a" fill-rule="evenodd"></path><path id="path3" d="M272.724 106.990 C 251.783 127.854,245.937 133.657,221.281 158.057 C 214.672 164.597,209.265 170.169,209.265 170.438 C 209.265 170.872,211.814 170.927,232.109 170.927 C 247.125 170.927,254.952 171.036,254.952 171.246 C 254.952 171.422,255.182 171.565,255.463 171.565 C 257.759 171.565,262.939 176.322,262.939 178.430 C 262.939 178.696,263.083 178.914,263.259 178.914 C 263.435 178.914,263.578 179.058,263.578 179.233 C 263.578 179.683,261.869 179.632,261.406 179.169 C 261.108 178.871,261.022 179.080,261.022 180.109 C 261.022 180.837,261.183 181.531,261.378 181.652 C 261.609 181.794,261.655 182.336,261.510 183.188 C 261.387 183.912,261.171 187.093,261.031 190.256 C 260.802 195.402,260.302 199.892,259.429 204.633 C 259.117 206.324,258.980 206.962,257.525 213.498 C 257.359 214.245,257.132 215.288,257.022 215.815 C 256.911 216.342,256.702 217.061,256.557 217.412 C 256.413 217.764,256.043 218.914,255.737 219.968 C 254.082 225.662,249.871 235.186,246.696 240.415 C 246.056 241.470,245.315 242.726,245.050 243.206 C 243.201 246.563,237.454 253.637,232.912 258.147 C 222.164 268.820,210.329 275.164,195.048 278.444 C 187.427 280.080,172.433 280.773,164.413 279.860 C 156.207 278.926,148.086 277.519,142.492 276.064 C 134.797 274.061,133.849 273.782,127.109 271.531 C 121.220 269.564,121.303 269.834,127.716 273.524 C 129.993 274.834,131.095 275.472,137.859 279.400 C 141.725 281.644,146.254 284.266,147.923 285.227 C 149.593 286.187,151.426 287.245,151.997 287.576 C 152.568 287.908,153.502 288.447,154.073 288.774 C 154.645 289.102,155.974 289.872,157.029 290.487 C 158.083 291.101,160.815 292.580,163.099 293.772 C 165.383 294.965,168.262 296.477,169.496 297.132 C 171.408 298.148,182.208 302.875,182.616 302.875 C 182.692 302.875,183.364 303.143,184.109 303.471 C 184.854 303.799,186.470 304.373,187.700 304.747 C 188.930 305.121,191.374 305.870,193.131 306.412 C 197.813 307.857,197.878 307.873,202.396 308.766 C 209.078 310.085,209.579 310.171,213.099 310.605 C 217.315 311.124,231.521 311.123,234.904 310.604 C 236.266 310.395,238.494 310.060,239.856 309.860 C 244.434 309.188,252.371 306.995,257.029 305.115 C 257.380 304.973,258.171 304.675,258.786 304.453 C 267.118 301.447,279.560 293.009,287.075 285.265 C 295.412 276.677,299.428 270.644,305.447 257.668 C 307.652 252.916,308.420 251.139,309.627 248.003 C 309.780 247.608,310.035 246.961,310.194 246.565 C 311.659 242.936,315.846 230.837,316.635 227.955 C 316.983 226.681,317.502 224.840,317.873 223.562 C 318.787 220.417,319.262 218.588,319.826 216.054 C 320.581 212.659,320.807 211.597,320.963 210.703 C 321.055 210.176,321.254 209.457,321.406 209.105 C 321.558 208.754,321.757 208.035,321.849 207.508 C 322.058 206.307,322.541 204.110,323.006 202.236 C 323.667 199.571,324.571 194.681,324.807 192.492 C 324.902 191.613,325.110 190.758,325.269 190.591 C 325.723 190.116,325.611 188.818,325.116 188.818 C 324.367 188.818,322.928 187.944,323.299 187.714 C 323.488 187.598,323.642 186.800,323.642 185.942 C 323.642 185.085,323.786 184.294,323.962 184.185 C 324.137 184.077,324.281 183.277,324.281 182.409 C 324.281 181.541,324.425 180.831,324.601 180.831 C 324.776 180.831,324.920 180.256,324.920 179.553 C 324.920 178.850,325.064 178.275,325.240 178.275 C 325.415 178.275,325.559 177.987,325.559 177.636 C 325.559 177.284,325.679 176.997,325.825 176.997 C 325.971 176.997,326.293 176.601,326.541 176.118 C 327.204 174.828,330.385 172.204,331.288 172.204 C 331.476 172.204,331.629 172.061,331.629 171.885 C 331.629 171.709,332.052 171.565,332.569 171.565 C 333.086 171.565,333.597 171.422,333.706 171.246 C 333.835 171.038,341.850 170.927,356.709 170.927 C 373.815 170.927,379.573 170.833,379.747 170.552 C 379.892 170.316,372.229 162.479,359.079 149.418 C 347.584 138.000,328.452 118.976,316.564 107.141 C 304.676 95.306,294.774 85.623,294.559 85.623 C 294.345 85.623,284.519 95.238,272.724 106.990 M277.955 113.738 C 277.955 113.924,279.014 114.058,280.492 114.058 C 281.888 114.058,283.118 114.201,283.227 114.377 C 283.335 114.553,284.135 114.696,285.003 114.696 C 285.871 114.696,286.581 114.840,286.581 115.016 C 286.581 115.192,287.148 115.335,287.841 115.335 C 288.533 115.335,289.189 115.479,289.297 115.655 C 289.406 115.831,289.981 115.974,290.575 115.974 C 291.169 115.974,291.744 116.118,291.853 116.294 C 291.962 116.470,292.384 116.613,292.791 116.613 C 293.199 116.613,293.711 116.829,293.930 117.093 C 294.148 117.356,294.661 117.572,295.068 117.572 C 295.476 117.572,295.898 117.716,296.006 117.891 C 296.115 118.067,296.627 118.211,297.143 118.211 C 297.660 118.211,298.083 118.355,298.083 118.530 C 298.083 118.706,298.438 118.850,298.872 118.850 C 299.306 118.850,300.173 119.137,300.799 119.489 C 301.424 119.840,302.112 120.127,302.326 120.126 C 302.928 120.123,310.543 124.015,310.543 124.326 C 310.543 124.477,310.815 124.601,311.148 124.601 C 311.481 124.601,311.835 124.816,311.937 125.080 C 312.038 125.343,312.381 125.559,312.699 125.559 C 313.017 125.559,313.485 125.847,313.738 126.198 C 313.991 126.550,314.423 126.837,314.696 126.837 C 314.970 126.837,315.402 127.125,315.655 127.476 C 315.908 127.827,316.344 128.115,316.624 128.115 C 316.904 128.115,317.546 128.546,318.051 129.073 C 318.556 129.601,319.128 130.032,319.322 130.032 C 319.516 130.032,320.310 130.679,321.086 131.470 C 321.862 132.260,322.649 132.907,322.834 132.907 C 323.269 132.907,332.588 142.234,332.588 142.669 C 332.588 142.850,333.235 143.633,334.026 144.409 C 334.816 145.185,335.463 145.979,335.463 146.173 C 335.463 146.367,335.895 146.939,336.422 147.444 C 336.949 147.949,337.380 148.524,337.380 148.722 C 337.380 148.919,337.632 149.359,337.939 149.700 C 338.247 150.041,338.702 150.715,338.952 151.198 C 339.201 151.681,339.525 152.077,339.671 152.077 C 339.817 152.077,339.936 152.332,339.936 152.645 C 339.936 152.958,340.224 153.421,340.575 153.674 C 340.927 153.927,341.214 154.321,341.214 154.548 C 341.214 155.056,341.819 156.162,342.597 157.076 C 343.516 158.156,346.645 164.593,346.645 165.404 C 346.645 165.805,346.789 166.134,346.965 166.134 C 347.141 166.134,347.284 166.422,347.284 166.773 C 347.284 167.125,347.428 167.412,347.604 167.412 C 347.780 167.412,347.923 167.843,347.923 168.371 C 347.923 168.905,348.100 169.345,348.323 169.366 C 349.626 169.486,345.677 169.934,343.181 169.950 C 339.345 169.973,332.518 170.600,332.125 170.965 C 331.958 171.119,331.624 171.246,331.383 171.246 C 329.395 171.246,325.488 175.596,324.354 179.073 C 323.975 180.235,323.625 181.905,321.569 192.365 C 320.961 195.458,320.166 199.268,319.803 200.832 C 318.765 205.300,317.264 211.553,316.935 212.780 C 316.771 213.395,316.260 215.407,315.800 217.252 C 311.074 236.224,301.770 259.192,294.240 270.481 C 287.794 280.144,278.863 288.690,268.939 294.691 C 264.922 297.119,257.758 300.639,256.831 300.639 C 256.521 300.639,256.179 300.783,256.070 300.958 C 255.962 301.134,255.592 301.278,255.248 301.278 C 254.905 301.278,254.338 301.422,253.989 301.597 C 253.640 301.773,253.069 302.061,252.720 302.236 C 252.371 302.412,251.804 302.556,251.461 302.556 C 251.117 302.556,250.748 302.700,250.639 302.875 C 250.530 303.051,249.899 303.195,249.236 303.195 C 248.572 303.195,247.931 303.294,247.809 303.415 C 247.490 303.734,244.269 303.518,244.143 303.170 C 244.084 303.008,243.482 302.875,242.804 302.875 C 242.126 302.875,241.482 302.732,241.374 302.556 C 241.265 302.380,240.690 302.236,240.096 302.236 C 239.502 302.236,238.926 302.093,238.818 301.917 C 238.709 301.741,238.287 301.597,237.880 301.597 C 237.472 301.597,236.960 301.382,236.741 301.118 C 236.522 300.855,236.010 300.639,235.603 300.639 C 235.195 300.639,234.773 300.495,234.665 300.319 C 234.556 300.144,234.188 300.000,233.847 300.000 C 233.506 300.000,233.227 299.856,233.227 299.681 C 233.227 299.505,232.796 299.361,232.268 299.361 C 231.741 299.361,231.310 299.217,231.310 299.042 C 231.310 298.866,231.031 298.722,230.690 298.722 C 230.349 298.722,229.981 298.578,229.872 298.403 C 229.764 298.227,229.425 298.083,229.120 298.083 C 228.518 298.083,223.347 295.571,222.498 294.867 C 221.906 294.375,220.913 293.779,219.955 293.338 C 219.596 293.173,219.111 292.807,218.877 292.525 C 218.644 292.243,218.214 292.013,217.923 292.013 C 217.632 292.013,217.186 291.725,216.933 291.374 C 216.680 291.022,216.248 290.735,215.974 290.735 C 215.701 290.735,215.269 290.447,215.016 290.096 C 214.763 289.744,214.364 289.457,214.129 289.457 C 213.895 289.457,213.244 289.026,212.682 288.500 C 212.121 287.974,211.514 287.542,211.334 287.541 C 211.154 287.541,209.935 286.462,208.626 285.144 C 207.317 283.826,206.091 282.748,205.901 282.748 C 205.712 282.748,205.069 282.244,204.473 281.629 C 203.469 280.594,203.441 280.511,204.091 280.511 C 204.477 280.511,204.792 280.367,204.792 280.192 C 204.792 280.016,205.003 279.872,205.261 279.872 C 205.518 279.872,206.273 279.637,206.938 279.349 C 207.603 279.061,208.435 278.716,208.786 278.583 C 214.315 276.492,223.222 271.417,227.786 267.759 C 228.572 267.129,229.575 266.326,230.015 265.974 C 239.257 258.596,249.824 244.320,254.730 232.588 C 254.987 231.973,255.512 230.765,255.897 229.904 C 256.914 227.632,260.053 218.083,260.582 215.655 C 260.831 214.513,261.190 212.859,261.380 211.981 C 261.570 211.102,261.841 209.880,261.981 209.265 C 262.946 205.031,262.979 204.806,264.046 195.048 C 265.643 180.453,264.042 174.715,257.508 171.603 L 255.751 170.767 244.089 170.562 C 237.676 170.450,227.576 170.342,221.645 170.323 C 214.127 170.298,210.863 170.183,210.863 169.941 C 210.863 169.416,264.557 115.986,266.943 114.137 C 267.958 113.351,277.955 112.988,277.955 113.738 M203.435 172.221 C 202.776 172.921,202.236 173.563,202.236 173.648 C 202.236 173.732,207.448 173.774,213.818 173.740 C 220.188 173.707,224.501 173.628,223.403 173.565 C 222.304 173.503,221.406 173.315,221.406 173.148 C 221.406 172.980,220.408 172.843,219.188 172.843 C 217.969 172.843,216.882 172.700,216.773 172.524 C 216.665 172.348,215.586 172.204,214.377 172.204 C 213.168 172.204,212.089 172.061,211.981 171.885 C 211.872 171.709,211.010 171.565,210.064 171.565 C 209.118 171.565,208.256 171.422,208.147 171.246 C 207.575 170.321,204.654 170.925,203.435 172.221 " stroke="none" fill="#29a32a" fill-rule="evenodd"></path><path id="path4" d="M291.693 71.246 C 291.693 71.422,291.537 71.565,291.346 71.565 C 290.836 71.565,269.030 93.078,266.613 95.966 C 266.086 96.595,265.545 97.114,265.411 97.118 C 265.132 97.126,259.744 102.454,259.744 102.722 C 259.744 102.950,257.582 105.112,257.354 105.112 C 257.124 105.112,252.396 109.840,252.396 110.069 C 252.396 110.303,250.232 112.460,249.997 112.460 C 249.783 112.460,245.474 116.853,243.610 118.972 C 242.907 119.771,242.222 120.430,242.087 120.436 C 241.768 120.451,237.064 125.155,237.049 125.474 C 237.043 125.609,236.384 126.294,235.586 126.997 C 233.431 128.893,229.712 132.530,229.712 132.741 C 229.712 132.974,226.913 135.783,226.681 135.783 C 226.417 135.783,221.727 140.529,221.714 140.810 C 221.707 140.944,221.049 141.629,220.250 142.332 C 218.096 144.229,214.377 147.865,214.377 148.076 C 214.377 148.344,211.563 151.115,211.270 151.136 C 211.134 151.146,210.016 152.234,208.786 153.554 C 206.535 155.969,205.353 157.153,201.266 161.087 C 200.043 162.264,199.042 163.311,199.042 163.412 C 199.042 163.645,196.242 166.454,196.009 166.454 C 195.767 166.454,191.693 170.549,191.693 170.792 C 191.693 170.901,191.262 171.393,190.735 171.885 C 190.208 172.377,189.776 173.010,189.776 173.291 C 189.776 173.572,189.633 173.802,189.457 173.802 C 189.265 173.802,189.137 175.080,189.137 176.997 C 189.137 178.914,189.265 180.192,189.457 180.192 C 189.633 180.192,189.776 180.342,189.776 180.526 C 189.776 181.030,191.278 182.428,191.820 182.428 C 192.081 182.428,192.383 182.572,192.492 182.748 C 192.621 182.957,202.985 183.067,222.543 183.067 C 253.140 183.067,253.843 183.094,252.077 184.185 C 251.882 184.305,251.757 186.685,251.757 190.256 C 251.757 193.826,251.632 196.206,251.438 196.326 C 251.262 196.434,251.118 197.737,251.118 199.220 C 251.118 200.805,250.986 201.917,250.799 201.917 C 250.623 201.917,250.479 202.624,250.479 203.488 C 250.479 204.352,250.321 205.111,250.128 205.176 C 249.935 205.240,249.701 205.974,249.607 206.807 C 249.513 207.640,249.311 208.398,249.159 208.493 C 249.006 208.587,248.882 209.231,248.882 209.923 C 248.882 210.616,248.738 211.182,248.562 211.182 C 248.387 211.182,248.243 211.749,248.243 212.441 C 248.243 213.134,248.099 213.789,247.923 213.898 C 247.748 214.006,247.604 214.438,247.604 214.856 C 247.604 215.275,247.460 215.706,247.284 215.815 C 247.109 215.923,246.965 216.435,246.965 216.952 C 246.965 217.469,246.821 217.891,246.645 217.891 C 246.470 217.891,246.326 218.323,246.326 218.850 C 246.326 219.377,246.182 219.808,246.006 219.808 C 245.831 219.808,245.687 220.240,245.687 220.767 C 245.687 221.294,245.543 221.725,245.367 221.725 C 245.192 221.725,245.048 222.148,245.048 222.665 C 245.048 223.182,244.904 223.693,244.728 223.802 C 244.553 223.911,244.409 224.278,244.409 224.619 C 244.409 224.961,244.265 225.240,244.089 225.240 C 243.914 225.240,243.770 225.591,243.770 226.019 C 243.770 226.448,243.626 226.888,243.450 226.997 C 243.275 227.105,243.131 227.473,243.131 227.814 C 243.131 228.155,242.987 228.435,242.812 228.435 C 242.636 228.435,242.492 228.722,242.492 229.073 C 242.492 229.425,242.359 229.712,242.196 229.712 C 241.855 229.712,240.895 231.517,240.895 232.158 C 240.895 232.394,240.751 232.588,240.575 232.588 C 240.399 232.588,240.256 232.875,240.256 233.227 C 240.256 233.578,240.112 233.866,239.936 233.866 C 239.760 233.866,239.617 234.122,239.617 234.434 C 239.617 234.747,239.329 235.210,238.978 235.463 C 238.626 235.717,238.339 236.180,238.339 236.492 C 238.339 236.805,238.195 237.061,238.019 237.061 C 237.843 237.061,237.700 237.282,237.700 237.553 C 237.700 237.824,237.412 238.355,237.061 238.732 C 236.709 239.109,236.422 239.646,236.422 239.926 C 236.422 240.205,236.134 240.641,235.783 240.895 C 235.431 241.148,235.144 241.587,235.144 241.870 C 235.144 242.153,234.800 242.568,234.380 242.793 C 233.960 243.017,233.421 243.576,233.182 244.035 C 232.758 244.849,232.519 245.146,230.198 247.746 C 229.580 248.439,229.073 249.127,229.073 249.274 C 229.073 249.557,226.970 251.757,226.700 251.757 C 226.613 251.757,225.781 252.472,224.852 253.345 C 220.882 257.077,220.003 257.827,219.598 257.827 C 219.362 257.827,219.169 257.971,219.169 258.147 C 219.169 258.323,218.985 258.466,218.761 258.466 C 218.536 258.466,218.145 258.754,217.891 259.105 C 217.638 259.457,217.175 259.744,216.862 259.744 C 216.550 259.744,216.294 259.864,216.294 260.010 C 216.294 260.156,215.899 260.479,215.415 260.729 C 214.405 261.250,214.006 261.542,212.938 262.540 C 212.516 262.935,211.876 263.259,211.516 263.259 C 211.157 263.259,210.863 263.403,210.863 263.578 C 210.863 263.754,210.575 263.898,210.224 263.898 C 209.872 263.898,209.585 264.042,209.585 264.217 C 209.585 264.393,209.297 264.537,208.946 264.537 C 208.594 264.537,208.307 264.681,208.307 264.856 C 208.307 265.032,208.019 265.176,207.668 265.176 C 207.316 265.176,207.029 265.319,207.029 265.495 C 207.029 265.671,206.750 265.815,206.409 265.815 C 206.068 265.815,205.700 265.958,205.591 266.134 C 205.482 266.310,205.043 266.454,204.614 266.454 C 204.185 266.454,203.834 266.597,203.834 266.773 C 203.834 266.949,203.555 267.093,203.214 267.093 C 202.873 267.093,202.505 267.236,202.396 267.412 C 202.288 267.588,201.776 267.732,201.259 267.732 C 200.742 267.732,200.319 267.875,200.319 268.051 C 200.319 268.227,199.888 268.371,199.361 268.371 C 198.834 268.371,198.403 268.514,198.403 268.690 C 198.403 268.866,197.971 269.010,197.444 269.010 C 196.917 269.010,196.486 269.153,196.486 269.329 C 196.486 269.505,196.010 269.649,195.428 269.649 C 194.847 269.649,194.092 269.860,193.751 270.118 C 193.410 270.376,192.600 270.591,191.952 270.597 C 191.303 270.602,190.684 270.751,190.575 270.927 C 190.466 271.102,189.532 271.246,188.498 271.246 C 187.465 271.246,186.530 271.390,186.422 271.565 C 186.313 271.741,185.019 271.885,183.546 271.885 C 182.073 271.885,180.780 272.029,180.671 272.204 C 180.549 272.401,177.845 272.524,173.623 272.524 C 169.270 272.524,166.773 272.408,166.773 272.204 C 166.773 272.012,165.442 271.885,163.419 271.885 C 161.395 271.885,160.064 271.758,160.064 271.565 C 160.064 271.383,159.105 271.246,157.827 271.246 C 156.550 271.246,155.591 271.109,155.591 270.927 C 155.591 270.750,154.748 270.607,153.701 270.607 C 152.612 270.607,151.761 270.458,151.693 270.256 C 151.629 270.063,150.895 269.828,150.062 269.735 C 149.229 269.641,148.471 269.439,148.376 269.287 C 148.282 269.134,147.647 269.010,146.965 269.010 C 146.283 269.010,145.636 268.866,145.527 268.690 C 145.419 268.514,144.763 268.371,144.071 268.371 C 143.378 268.371,142.812 268.227,142.812 268.051 C 142.812 267.875,142.236 267.732,141.534 267.732 C 140.831 267.732,140.256 267.588,140.256 267.412 C 140.256 267.236,139.833 267.093,139.316 267.093 C 138.799 267.093,138.288 266.949,138.179 266.773 C 138.070 266.597,137.495 266.454,136.901 266.454 C 136.307 266.454,135.732 266.310,135.623 266.134 C 135.514 265.958,135.003 265.815,134.486 265.815 C 133.969 265.815,133.546 265.671,133.546 265.495 C 133.546 265.319,133.115 265.176,132.588 265.176 C 132.061 265.176,131.629 265.032,131.629 264.856 C 131.629 264.681,131.198 264.537,130.671 264.537 C 130.144 264.537,129.712 264.393,129.712 264.217 C 129.712 264.042,129.281 263.898,128.754 263.898 C 128.227 263.898,127.796 263.754,127.796 263.578 C 127.796 263.403,127.292 263.259,126.677 263.259 C 126.062 263.259,125.559 263.115,125.559 262.939 C 125.559 262.764,125.333 262.620,125.057 262.620 C 124.781 262.620,124.339 262.404,124.076 262.141 C 123.812 261.877,123.319 261.661,122.980 261.661 C 122.641 261.661,122.364 261.518,122.364 261.342 C 122.364 261.166,122.013 261.022,121.584 261.022 C 121.155 261.022,120.716 260.879,120.607 260.703 C 120.498 260.527,120.059 260.383,119.630 260.383 C 119.201 260.383,118.850 260.266,118.850 260.122 C 118.850 259.978,118.131 259.664,117.252 259.425 C 116.374 259.186,115.655 258.872,115.655 258.728 C 115.655 258.584,115.367 258.466,115.016 258.466 C 114.665 258.466,114.377 258.323,114.377 258.147 C 114.377 257.971,114.018 257.827,113.578 257.827 C 113.139 257.827,112.780 257.684,112.780 257.508 C 112.780 257.332,112.348 257.188,111.821 257.188 C 111.294 257.188,110.863 257.045,110.863 256.869 C 110.863 256.693,110.575 256.550,110.224 256.550 C 109.872 256.550,109.585 256.406,109.585 256.230 C 109.585 256.054,109.297 255.911,108.946 255.911 C 108.594 255.911,108.307 255.767,108.307 255.591 C 108.307 255.415,108.019 255.272,107.668 255.272 C 107.316 255.272,107.029 255.147,107.029 254.995 C 107.029 254.704,104.164 253.488,103.754 253.606 C 103.622 253.643,103.514 253.530,103.514 253.355 C 103.514 253.179,103.239 253.035,102.902 253.035 C 102.565 253.035,102.242 252.918,102.183 252.776 C 102.022 252.384,94.173 248.562,93.530 248.562 C 93.223 248.562,92.971 248.419,92.971 248.243 C 92.971 248.060,92.013 247.923,90.735 247.923 C 89.457 247.923,88.498 248.060,88.498 248.243 C 88.498 248.419,88.239 248.562,87.922 248.562 C 87.181 248.562,84.984 250.565,84.984 251.241 C 84.984 251.525,84.840 251.757,84.665 251.757 C 84.474 251.757,84.345 252.982,84.345 254.792 C 84.345 256.603,84.474 257.827,84.665 257.827 C 84.840 257.827,84.984 258.050,84.984 258.321 C 84.984 258.960,86.407 260.383,87.046 260.383 C 87.318 260.383,87.540 260.527,87.540 260.703 C 87.540 260.879,87.756 261.022,88.019 261.022 C 88.283 261.022,88.498 261.166,88.498 261.342 C 88.498 261.518,88.786 261.661,89.137 261.661 C 89.489 261.661,89.776 261.805,89.776 261.981 C 89.776 262.157,90.064 262.300,90.415 262.300 C 90.767 262.300,91.054 262.499,91.054 262.742 C 91.054 262.985,91.306 263.264,91.613 263.362 C 92.361 263.599,94.063 264.636,94.196 264.936 C 94.255 265.068,94.477 265.176,94.691 265.176 C 95.258 265.176,96.800 265.934,96.803 266.214 C 96.804 266.346,97.021 266.454,97.284 266.454 C 97.548 266.454,97.764 266.597,97.764 266.773 C 97.764 266.949,98.051 267.093,98.403 267.093 C 98.754 267.093,99.042 267.236,99.042 267.412 C 99.042 267.588,99.263 267.732,99.534 267.732 C 99.805 267.732,100.335 268.019,100.713 268.371 C 101.090 268.722,101.587 269.010,101.817 269.010 C 102.048 269.010,102.236 269.153,102.236 269.329 C 102.236 269.505,102.528 269.649,102.885 269.649 C 103.242 269.649,103.617 269.863,103.718 270.126 C 103.818 270.389,104.011 270.535,104.146 270.452 C 104.280 270.369,104.732 270.600,105.150 270.965 C 105.569 271.331,106.450 271.865,107.109 272.152 C 107.768 272.440,108.307 272.785,108.307 272.919 C 108.307 273.053,108.486 273.166,108.706 273.170 C 108.926 273.174,109.465 273.458,109.904 273.802 C 110.343 274.146,110.954 274.430,111.262 274.434 C 111.569 274.438,111.821 274.585,111.821 274.760 C 111.821 274.936,112.077 275.080,112.390 275.080 C 112.702 275.080,113.165 275.367,113.419 275.719 C 113.672 276.070,114.135 276.358,114.448 276.358 C 114.760 276.358,115.016 276.502,115.016 276.677 C 115.016 276.853,115.304 276.997,115.655 276.997 C 116.006 276.997,116.294 277.141,116.294 277.316 C 116.294 277.492,116.447 277.636,116.635 277.636 C 116.822 277.636,117.447 277.995,118.023 278.435 C 118.599 278.874,119.236 279.233,119.439 279.233 C 119.642 279.233,119.808 279.377,119.808 279.553 C 119.808 279.728,120.096 279.872,120.447 279.872 C 120.799 279.872,121.086 280.016,121.086 280.192 C 121.086 280.367,121.342 280.511,121.655 280.511 C 121.967 280.511,122.430 280.799,122.684 281.150 C 122.937 281.502,123.400 281.789,123.713 281.789 C 124.025 281.789,124.281 281.933,124.281 282.109 C 124.281 282.284,124.569 282.428,124.920 282.428 C 125.272 282.428,125.559 282.572,125.559 282.748 C 125.559 282.923,125.775 283.067,126.038 283.067 C 126.302 283.067,126.520 283.247,126.522 283.466 C 126.526 283.780,126.581 283.781,126.777 283.474 C 126.960 283.185,127.146 283.249,127.481 283.713 C 127.732 284.061,128.192 284.345,128.505 284.345 C 128.818 284.345,129.073 284.489,129.073 284.665 C 129.073 284.840,129.361 284.984,129.712 284.984 C 130.064 284.984,130.351 285.167,130.351 285.392 C 130.351 285.616,131.573 286.430,133.067 287.202 C 134.561 287.973,135.783 288.724,135.783 288.871 C 135.783 289.017,136.070 289.137,136.422 289.137 C 136.773 289.137,137.061 289.281,137.061 289.457 C 137.061 289.633,137.348 289.776,137.700 289.776 C 138.051 289.776,138.339 289.920,138.339 290.096 C 138.339 290.272,138.554 290.415,138.818 290.415 C 139.081 290.415,139.297 290.559,139.297 290.735 C 139.297 290.911,139.513 291.054,139.776 291.054 C 140.040 291.054,140.256 291.198,140.256 291.374 C 140.256 291.550,140.624 291.693,141.073 291.693 C 141.537 291.693,141.805 291.832,141.693 292.013 C 141.581 292.194,141.850 292.332,142.313 292.332 C 142.863 292.332,143.131 292.506,143.131 292.865 C 143.131 293.158,143.220 293.308,143.329 293.199 C 143.438 293.091,143.720 293.175,143.957 293.386 C 145.057 294.369,145.374 294.569,145.833 294.569 C 146.104 294.569,146.326 294.712,146.326 294.888 C 146.326 295.064,146.548 295.208,146.818 295.208 C 147.089 295.208,147.620 295.495,147.997 295.847 C 148.374 296.198,148.943 296.486,149.262 296.486 C 149.580 296.486,149.840 296.629,149.840 296.805 C 149.840 296.981,150.062 297.125,150.333 297.125 C 150.604 297.125,151.134 297.412,151.511 297.764 C 151.889 298.115,152.386 298.403,152.616 298.403 C 152.847 298.403,153.035 298.546,153.035 298.722 C 153.035 298.898,153.323 299.042,153.674 299.042 C 154.026 299.042,154.313 299.185,154.313 299.361 C 154.313 299.537,154.601 299.681,154.952 299.681 C 155.304 299.681,155.591 299.824,155.591 300.000 C 155.591 300.176,155.879 300.319,156.230 300.319 C 156.581 300.319,156.869 300.466,156.869 300.644 C 156.869 300.823,157.372 301.209,157.987 301.502 C 158.602 301.795,159.105 302.152,159.105 302.296 C 159.105 302.439,159.393 302.556,159.744 302.556 C 160.096 302.556,160.383 302.700,160.383 302.875 C 160.383 303.051,160.570 303.195,160.799 303.195 C 161.387 303.195,162.934 303.946,162.937 304.233 C 162.938 304.365,163.299 304.473,163.738 304.473 C 164.177 304.473,164.537 304.617,164.537 304.792 C 164.537 304.968,164.824 305.112,165.176 305.112 C 165.527 305.112,165.815 305.256,165.815 305.431 C 165.815 305.607,166.102 305.751,166.454 305.751 C 166.805 305.751,167.093 305.895,167.093 306.070 C 167.093 306.246,167.380 306.390,167.732 306.390 C 168.083 306.390,168.371 306.508,168.371 306.652 C 168.371 306.795,169.083 307.107,169.955 307.345 C 170.826 307.582,171.612 307.967,171.702 308.201 C 171.792 308.435,172.157 308.626,172.514 308.626 C 172.871 308.626,173.163 308.770,173.163 308.946 C 173.163 309.121,173.442 309.265,173.783 309.265 C 174.124 309.265,174.492 309.409,174.601 309.585 C 174.709 309.760,175.149 309.904,175.578 309.904 C 176.007 309.904,176.358 310.048,176.358 310.224 C 176.358 310.399,176.637 310.543,176.978 310.543 C 177.319 310.543,177.687 310.687,177.796 310.863 C 177.904 311.038,178.315 311.182,178.709 311.182 C 179.103 311.182,179.568 311.325,179.743 311.500 C 179.917 311.674,180.449 311.850,180.925 311.889 C 181.400 311.928,181.789 312.073,181.789 312.210 C 181.789 312.348,182.077 312.460,182.428 312.460 C 182.780 312.460,183.067 312.604,183.067 312.780 C 183.067 312.955,183.490 313.099,184.007 313.099 C 184.523 313.099,185.035 313.243,185.144 313.419 C 185.252 313.594,185.764 313.738,186.281 313.738 C 186.798 313.738,187.220 313.882,187.220 314.058 C 187.220 314.233,187.715 314.377,188.320 314.377 C 188.924 314.377,189.508 314.521,189.617 314.696 C 189.725 314.872,190.225 315.016,190.727 315.016 C 191.229 315.016,191.691 315.168,191.752 315.353 C 191.814 315.538,192.399 315.718,193.052 315.752 C 193.705 315.787,194.309 315.994,194.394 316.214 C 194.482 316.442,195.102 316.613,195.837 316.613 C 196.545 316.613,197.125 316.757,197.125 316.933 C 197.125 317.109,197.772 317.252,198.562 317.252 C 199.353 317.252,200.000 317.396,200.000 317.572 C 200.000 317.748,200.719 317.891,201.597 317.891 C 202.476 317.891,203.195 318.035,203.195 318.211 C 203.195 318.388,204.038 318.530,205.085 318.530 C 206.313 318.530,207.022 318.670,207.109 318.930 C 207.213 319.242,210.806 319.329,223.642 319.329 C 236.478 319.329,240.071 319.242,240.176 318.930 C 240.265 318.662,241.031 318.530,242.500 318.530 C 243.705 318.530,244.780 318.387,244.888 318.211 C 244.997 318.035,245.572 317.891,246.166 317.891 C 246.760 317.891,247.335 317.748,247.444 317.572 C 247.553 317.396,248.128 317.252,248.722 317.252 C 249.316 317.252,249.891 317.109,250.000 316.933 C 250.109 316.757,250.557 316.613,250.997 316.613 C 252.067 316.613,254.952 315.654,254.952 315.299 C 254.952 315.143,255.383 315.016,255.911 315.016 C 256.438 315.016,256.869 314.872,256.869 314.696 C 256.869 314.521,257.292 314.377,257.809 314.377 C 258.325 314.377,258.837 314.233,258.946 314.058 C 259.054 313.882,259.422 313.738,259.763 313.738 C 260.104 313.738,260.383 313.594,260.383 313.419 C 260.383 313.243,260.815 313.099,261.342 313.099 C 261.869 313.099,262.300 312.955,262.300 312.780 C 262.300 312.604,262.720 312.460,263.232 312.460 C 263.745 312.460,264.212 312.345,264.271 312.205 C 264.393 311.913,267.242 310.543,267.728 310.543 C 267.906 310.543,268.051 310.399,268.051 310.224 C 268.051 310.048,268.262 309.904,268.519 309.904 C 269.080 309.904,272.000 308.324,272.151 307.939 C 272.210 307.790,272.533 307.668,272.870 307.668 C 273.207 307.668,273.482 307.524,273.482 307.348 C 273.482 307.173,273.698 307.029,273.962 307.029 C 274.225 307.029,274.441 306.885,274.441 306.709 C 274.441 306.534,274.697 306.390,275.009 306.390 C 275.322 306.390,275.785 306.102,276.038 305.751 C 276.292 305.399,276.689 305.112,276.921 305.112 C 277.153 305.112,277.652 304.824,278.029 304.473 C 278.406 304.121,278.903 303.834,279.134 303.834 C 279.364 303.834,279.553 303.725,279.553 303.592 C 279.553 303.460,279.948 303.172,280.431 302.954 C 281.503 302.469,282.682 301.550,284.526 299.760 C 285.296 299.014,286.087 298.403,286.285 298.403 C 286.483 298.403,287.047 297.971,287.540 297.444 C 288.032 296.917,288.557 296.481,288.706 296.475 C 288.856 296.469,289.696 295.659,290.575 294.675 C 292.036 293.038,294.815 290.232,297.038 288.148 C 298.223 287.038,299.042 286.005,299.042 285.621 C 299.042 285.448,299.760 284.573,300.639 283.675 C 301.518 282.778,302.236 281.843,302.236 281.597 C 302.236 281.351,302.371 281.150,302.534 281.150 C 302.698 281.150,302.916 280.886,303.019 280.563 C 303.121 280.240,303.634 279.495,304.158 278.908 C 304.683 278.321,305.112 277.682,305.112 277.489 C 305.112 277.296,305.399 276.931,305.751 276.677 C 306.102 276.424,306.390 275.961,306.390 275.648 C 306.390 275.336,306.534 275.080,306.709 275.080 C 306.885 275.080,307.029 274.792,307.029 274.441 C 307.029 274.089,307.149 273.802,307.295 273.802 C 307.617 273.802,309.585 270.057,309.585 269.444 C 309.585 269.205,309.728 269.010,309.904 269.010 C 310.080 269.010,310.224 268.722,310.224 268.371 C 310.224 268.019,310.367 267.732,310.543 267.732 C 310.719 267.732,310.863 267.444,310.863 267.093 C 310.863 266.741,310.990 266.454,311.145 266.454 C 311.300 266.454,311.514 266.202,311.620 265.895 C 311.727 265.587,312.092 264.904,312.433 264.377 C 312.774 263.850,313.063 263.167,313.076 262.859 C 313.089 262.552,313.243 262.300,313.419 262.300 C 313.594 262.300,313.738 262.013,313.738 261.661 C 313.738 261.310,313.856 261.022,314.000 261.022 C 314.144 261.022,314.457 260.304,314.696 259.425 C 314.936 258.546,315.249 257.827,315.393 257.827 C 315.537 257.827,315.655 257.540,315.655 257.188 C 315.655 256.837,315.799 256.550,315.974 256.550 C 316.150 256.550,316.294 256.190,316.294 255.751 C 316.294 255.312,316.438 254.952,316.613 254.952 C 316.789 254.952,316.933 254.521,316.933 253.994 C 316.933 253.466,317.077 253.035,317.252 253.035 C 317.428 253.035,317.572 252.748,317.572 252.396 C 317.572 252.045,317.716 251.757,317.891 251.757 C 318.067 251.757,318.211 251.326,318.211 250.799 C 318.211 250.272,318.355 249.840,318.530 249.840 C 318.706 249.840,318.854 249.589,318.860 249.281 C 318.866 248.974,319.081 248.443,319.339 248.102 C 319.597 247.761,319.808 247.222,319.808 246.904 C 319.808 246.586,319.952 246.326,320.128 246.326 C 320.304 246.326,320.447 246.047,320.447 245.706 C 320.447 245.365,320.591 244.997,320.767 244.888 C 320.942 244.780,321.086 244.340,321.086 243.911 C 321.086 243.482,321.230 243.131,321.406 243.131 C 321.581 243.131,321.725 242.708,321.725 242.191 C 321.725 241.675,321.869 241.163,322.045 241.054 C 322.220 240.946,322.364 240.434,322.364 239.917 C 322.364 239.400,322.508 238.978,322.684 238.978 C 322.859 238.978,323.003 238.546,323.003 238.019 C 323.003 237.492,323.147 237.061,323.323 237.061 C 323.498 237.061,323.642 236.629,323.642 236.102 C 323.642 235.575,323.786 235.144,323.962 235.144 C 324.137 235.144,324.281 234.712,324.281 234.185 C 324.281 233.658,324.425 233.227,324.601 233.227 C 324.776 233.227,324.920 232.724,324.920 232.109 C 324.920 231.494,325.064 230.990,325.240 230.990 C 325.415 230.990,325.559 230.415,325.559 229.712 C 325.559 229.010,325.703 228.435,325.879 228.435 C 326.054 228.435,326.198 228.003,326.198 227.476 C 326.198 226.949,326.342 226.518,326.518 226.518 C 326.693 226.518,326.842 226.194,326.848 225.799 C 326.855 225.403,327.065 224.720,327.316 224.281 C 327.567 223.842,327.778 223.096,327.784 222.623 C 327.790 222.150,327.939 221.674,328.115 221.565 C 328.291 221.457,328.435 220.882,328.435 220.288 C 328.435 219.693,328.578 219.118,328.754 219.010 C 328.930 218.901,329.073 218.246,329.073 217.553 C 329.073 216.861,329.217 216.294,329.393 216.294 C 329.569 216.294,329.712 215.727,329.712 215.035 C 329.712 214.342,329.856 213.687,330.032 213.578 C 330.208 213.470,330.351 212.826,330.351 212.148 C 330.351 211.470,330.487 210.868,330.654 210.809 C 330.820 210.751,330.991 210.020,331.033 209.185 C 331.075 208.351,331.227 207.668,331.370 207.668 C 331.512 207.668,331.629 207.173,331.629 206.568 C 331.629 205.964,331.773 205.380,331.949 205.272 C 332.125 205.163,332.268 204.508,332.268 203.815 C 332.268 203.123,332.412 202.556,332.588 202.556 C 332.764 202.556,332.907 201.909,332.907 201.118 C 332.907 200.327,333.051 199.681,333.227 199.681 C 333.403 199.681,333.546 198.970,333.546 198.102 C 333.546 197.234,333.690 196.434,333.866 196.326 C 334.042 196.217,334.185 195.430,334.185 194.576 C 334.185 193.723,334.332 192.976,334.512 192.916 C 334.842 192.806,335.375 190.497,335.679 187.859 C 335.770 187.069,335.975 186.285,336.133 186.118 C 336.292 185.951,336.422 185.196,336.422 184.441 L 336.422 183.067 366.613 183.067 C 386.528 183.067,396.805 182.958,396.805 182.748 C 396.805 182.572,397.099 182.428,397.459 182.428 C 399.570 182.428,401.288 174.497,399.553 172.761 C 399.272 172.480,399.040 172.132,399.038 171.988 C 399.035 171.701,393.390 165.894,389.118 161.783 C 387.635 160.356,386.216 158.890,385.964 158.525 C 385.713 158.160,385.425 157.893,385.325 157.932 C 385.225 157.971,383.691 156.525,381.915 154.720 C 380.139 152.915,378.743 151.438,378.813 151.438 C 378.882 151.438,378.754 151.237,378.527 150.992 C 378.300 150.747,378.007 150.612,377.875 150.691 C 377.744 150.771,377.636 150.604,377.636 150.319 C 377.636 150.035,377.528 149.848,377.396 149.903 C 377.095 150.028,371.301 144.141,371.515 143.927 C 371.601 143.841,371.424 143.770,371.121 143.770 C 370.817 143.770,370.635 143.662,370.714 143.530 C 370.856 143.297,370.149 142.464,369.922 142.597 C 369.723 142.715,364.013 136.733,364.172 136.574 C 364.255 136.490,364.076 136.422,363.772 136.422 C 363.469 136.422,363.286 136.314,363.366 136.182 C 363.555 135.870,362.747 135.123,362.494 135.376 C 362.388 135.483,362.300 135.322,362.300 135.018 C 362.300 134.715,362.192 134.512,362.061 134.567 C 361.929 134.622,360.517 133.337,358.924 131.711 C 357.331 130.084,356.109 128.745,356.208 128.734 C 356.308 128.723,356.066 128.583,355.671 128.425 C 355.276 128.266,354.952 127.907,354.952 127.627 C 354.952 127.348,354.808 127.208,354.633 127.316 C 354.457 127.425,354.313 127.389,354.313 127.236 C 354.313 126.873,348.526 121.086,348.164 121.086 C 348.011 121.086,347.974 120.942,348.083 120.767 C 348.192 120.591,348.052 120.447,347.772 120.447 C 347.493 120.447,347.171 120.196,347.057 119.888 C 346.943 119.581,346.600 119.113,346.295 118.850 C 345.990 118.586,345.477 118.145,345.155 117.869 C 344.832 117.593,343.697 116.433,342.631 115.290 C 341.565 114.148,340.451 113.120,340.155 113.006 C 339.859 112.893,339.617 112.571,339.617 112.291 C 339.617 112.012,339.473 111.872,339.297 111.981 C 339.121 112.089,338.978 112.058,338.978 111.910 C 338.978 111.693,333.307 105.751,333.100 105.751 C 333.067 105.751,325.717 98.419,316.767 89.457 C 307.817 80.495,300.363 73.163,300.204 73.163 C 300.045 73.163,299.683 72.908,299.398 72.596 C 298.169 71.246,297.216 70.927,294.420 70.927 C 292.815 70.927,291.693 71.058,291.693 71.246 M316.564 107.141 C 328.452 118.976,347.584 138.000,359.079 149.418 C 372.229 162.479,379.892 170.316,379.747 170.552 C 379.573 170.833,373.815 170.927,356.709 170.927 C 341.850 170.927,333.835 171.038,333.706 171.246 C 333.597 171.422,333.086 171.565,332.569 171.565 C 332.052 171.565,331.629 171.709,331.629 171.885 C 331.629 172.061,331.476 172.204,331.288 172.204 C 330.385 172.204,327.204 174.828,326.541 176.118 C 326.293 176.601,325.971 176.997,325.825 176.997 C 325.679 176.997,325.559 177.284,325.559 177.636 C 325.559 177.987,325.415 178.275,325.240 178.275 C 325.064 178.275,324.920 178.850,324.920 179.553 C 324.920 180.256,324.776 180.831,324.601 180.831 C 324.425 180.831,324.281 181.541,324.281 182.409 C 324.281 183.277,324.137 184.077,323.962 184.185 C 323.786 184.294,323.642 185.085,323.642 185.942 C 323.642 186.800,323.488 187.598,323.299 187.714 C 322.928 187.944,324.367 188.818,325.116 188.818 C 325.611 188.818,325.723 190.116,325.269 190.591 C 325.110 190.758,324.902 191.613,324.807 192.492 C 324.571 194.681,323.667 199.571,323.006 202.236 C 322.541 204.110,322.058 206.307,321.849 207.508 C 321.757 208.035,321.558 208.754,321.406 209.105 C 321.254 209.457,321.055 210.176,320.963 210.703 C 320.807 211.597,320.581 212.659,319.826 216.054 C 319.262 218.588,318.787 220.417,317.873 223.562 C 317.502 224.840,316.983 226.681,316.635 227.955 C 315.846 230.837,311.659 242.936,310.194 246.565 C 310.035 246.961,309.780 247.608,309.627 248.003 C 306.146 257.047,300.737 267.826,296.798 273.571 C 287.723 286.806,271.763 299.772,258.786 304.453 C 258.171 304.675,257.380 304.973,257.029 305.115 C 252.371 306.995,244.434 309.188,239.856 309.860 C 238.494 310.060,236.266 310.395,234.904 310.604 C 231.521 311.123,217.315 311.124,213.099 310.605 C 209.579 310.171,209.078 310.085,202.396 308.766 C 197.878 307.873,197.813 307.857,193.131 306.412 C 191.374 305.870,188.930 305.121,187.700 304.747 C 186.470 304.373,184.854 303.799,184.109 303.471 C 183.364 303.143,182.692 302.875,182.616 302.875 C 182.208 302.875,171.408 298.148,169.496 297.132 C 168.262 296.477,165.383 294.965,163.099 293.772 C 160.815 292.580,158.083 291.101,157.029 290.487 C 155.974 289.872,154.645 289.102,154.073 288.774 C 153.502 288.447,152.568 287.908,151.997 287.576 C 151.426 287.245,149.593 286.187,147.923 285.227 C 146.254 284.266,141.725 281.644,137.859 279.400 C 131.095 275.472,129.993 274.834,127.716 273.524 C 121.303 269.834,121.220 269.564,127.109 271.531 C 133.849 273.782,134.797 274.061,142.492 276.064 C 148.086 277.519,156.207 278.926,164.413 279.860 C 172.433 280.773,187.427 280.080,195.048 278.444 C 210.329 275.164,222.164 268.820,232.912 258.147 C 237.454 253.637,243.201 246.563,245.050 243.206 C 245.315 242.726,246.056 241.470,246.696 240.415 C 249.871 235.186,254.082 225.662,255.737 219.968 C 256.043 218.914,256.413 217.764,256.557 217.412 C 256.702 217.061,256.911 216.342,257.022 215.815 C 257.132 215.288,257.359 214.245,257.525 213.498 C 258.980 206.962,259.117 206.324,259.429 204.633 C 260.302 199.892,260.802 195.402,261.031 190.256 C 261.171 187.093,261.387 183.912,261.510 183.188 C 261.655 182.336,261.609 181.794,261.378 181.652 C 261.183 181.531,261.022 180.837,261.022 180.109 C 261.022 179.080,261.108 178.871,261.406 179.169 C 261.869 179.632,263.578 179.683,263.578 179.233 C 263.578 179.058,263.435 178.914,263.259 178.914 C 263.083 178.914,262.939 178.696,262.939 178.430 C 262.939 176.322,257.759 171.565,255.463 171.565 C 255.182 171.565,254.952 171.422,254.952 171.246 C 254.952 171.036,247.125 170.927,232.109 170.927 C 211.814 170.927,209.265 170.872,209.265 170.438 C 209.265 170.169,214.672 164.597,221.281 158.057 C 245.937 133.657,251.783 127.854,272.724 106.990 C 284.519 95.238,294.345 85.623,294.559 85.623 C 294.774 85.623,304.676 95.306,316.564 107.141 M5.969 152.640 C 5.895 152.770,6.168 153.197,6.576 153.590 C 6.983 153.983,7.376 154.198,7.450 154.069 C 7.523 153.940,7.250 153.512,6.843 153.120 C 6.436 152.727,6.042 152.511,5.969 152.640 M13.419 160.125 C 13.419 160.213,13.706 160.617,14.058 161.022 C 14.409 161.428,14.696 161.616,14.696 161.440 C 14.696 161.265,14.409 160.861,14.058 160.543 C 13.706 160.225,13.419 160.037,13.419 160.125 M208.147 171.246 C 208.256 171.422,209.118 171.565,210.064 171.565 C 211.010 171.565,211.872 171.709,211.981 171.885 C 212.089 172.061,213.168 172.204,214.377 172.204 C 215.586 172.204,216.665 172.348,216.773 172.524 C 216.882 172.700,217.969 172.843,219.188 172.843 C 220.408 172.843,221.406 172.980,221.406 173.148 C 221.406 173.315,222.304 173.503,223.403 173.565 C 224.501 173.628,220.188 173.707,213.818 173.740 C 207.448 173.774,202.236 173.732,202.236 173.648 C 202.236 172.043,207.354 169.963,208.147 171.246 M69.150 215.887 C 70.018 216.806,70.797 217.489,70.881 217.405 C 70.964 217.321,70.970 217.216,70.894 217.173 C 70.817 217.129,70.039 216.446,69.163 215.655 L 67.572 214.218 69.150 215.887 M72.524 219.043 C 72.524 219.208,73.854 220.633,75.479 222.211 L 78.435 225.080 75.559 222.055 C 73.978 220.391,72.648 218.965,72.604 218.886 C 72.560 218.808,72.524 218.878,72.524 219.043 M82.975 229.706 C 84.769 231.539,86.279 232.973,86.330 232.893 C 86.382 232.813,84.914 231.313,83.068 229.560 L 79.712 226.373 82.975 229.706 M90.575 237.380 C 92.149 238.962,93.509 240.256,93.597 240.256 C 93.685 240.256,92.469 238.962,90.895 237.380 C 89.320 235.799,87.961 234.505,87.873 234.505 C 87.785 234.505,89.001 235.799,90.575 237.380 M95.208 241.739 C 95.208 241.899,96.234 243.032,97.488 244.258 C 98.742 245.483,99.651 246.277,99.507 246.023 C 99.363 245.769,98.703 245.062,98.039 244.452 C 97.376 243.842,96.921 243.201,97.028 243.028 C 97.136 242.855,97.069 242.808,96.880 242.925 C 96.691 243.042,96.238 242.757,95.872 242.292 C 95.507 241.828,95.208 241.578,95.208 241.739 " stroke="none" fill="#18601c" fill-rule="evenodd"></path></g></svg>