<?xml version="1.0" standalone="no"?>
<!DOCTYPE svg PUBLIC "-//W3C//DTD SVG 20010904//EN"
 "http://www.w3.org/TR/2001/REC-SVG-20010904/DTD/svg10.dtd">
<svg version="1.0" xmlns="http://www.w3.org/2000/svg"
 width="1024.000000pt" height="1024.000000pt" viewBox="0 0 1024.000000 1024.000000"
 preserveAspectRatio="xMidYMid meet">

<g transform="translate(0.000000,1024.000000) scale(0.100000,-0.100000)"
fill="#000000" stroke="none">
<path d="M4880 10234 c-928 -61 -1678 -291 -2430 -747 -623 -377 -1193 -928
-1605 -1552 -460 -695 -728 -1458 -821 -2330 -24 -223 -24 -747 0 -970 69
-650 224 -1201 491 -1750 251 -514 546 -932 950 -1344 587 -599 1272 -1026
2060 -1285 1265 -415 2651 -319 3840 265 515 253 922 540 1334 944 659 646
1113 1415 1361 2310 71 256 133 605 161 915 17 174 17 686 0 860 -78 844 -334
1608 -773 2303 -381 604 -909 1143 -1513 1542 -694 459 -1471 733 -2325 820
-146 15 -610 27 -730 19z m390 -1021 c187 -51 345 -219 385 -410 12 -57 15
-271 15 -1314 0 -858 -3 -1264 -11 -1304 -30 -161 -143 -311 -292 -387 -268
-137 -606 -24 -737 247 -21 44 -43 107 -49 139 -8 40 -11 466 -11 1310 0 1389
-3 1315 68 1450 61 117 176 216 303 262 90 32 227 35 329 7z m-1309 -1197
c171 -59 308 -208 354 -383 19 -73 19 -202 0 -273 -42 -157 -135 -268 -310
-369 -210 -121 -361 -236 -510 -386 -465 -468 -704 -1102 -664 -1762 62 -1010
778 -1857 1769 -2093 176 -42 290 -54 515 -55 164 0 250 5 335 18 491 76 922
291 1269 630 414 404 655 928 690 1500 40 662 -202 1302 -669 1767 -156 155
-313 273 -520 390 -167 94 -264 213 -305 375 -72 284 117 592 407 660 182 43
313 6 593 -170 703 -439 1233 -1134 1459 -1911 99 -341 136 -611 136 -975 0
-515 -105 -991 -319 -1444 -689 -1454 -2298 -2225 -3866 -1850 -617 147 -1148
446 -1605 904 -526 526 -847 1162 -960 1906 -28 177 -38 601 -21 793 91 991
603 1883 1410 2460 132 94 370 236 439 262 119 45 254 47 373 6z"/>
</g>
</svg>
