<?xml version="1.0" standalone="no"?>
<!DOCTYPE svg PUBLIC "-//W3C//DTD SVG 20010904//EN"
 "http://www.w3.org/TR/2001/REC-SVG-20010904/DTD/svg10.dtd">
<svg version="1.0" xmlns="http://www.w3.org/2000/svg"
 width="1600.000000pt" height="1600.000000pt" viewBox="0 0 1600.000000 1600.000000"
 preserveAspectRatio="xMidYMid meet">

<g transform="translate(0.000000,1600.000000) scale(0.100000,-0.100000)"
fill="#000000" stroke="none">
<path d="M11315 14224 c-132 -20 -355 -72 -459 -106 -121 -40 -311 -133 -418
-205 -379 -255 -633 -631 -735 -1088 -31 -138 -43 -438 -23 -592 6 -54 14
-101 16 -105 3 -4 44 25 92 66 502 422 1047 677 1607 751 264 35 621 29 928
-16 332 -48 679 -154 950 -290 l57 -29 0 48 c0 37 -7 59 -29 93 -16 24 -34 70
-41 103 -32 159 -140 412 -243 569 -332 509 -913 822 -1514 816 -54 -1 -138
-7 -188 -15z"/>
<path d="M3949 14145 c-193 -31 -355 -84 -537 -176 -187 -94 -302 -178 -462
-339 -231 -230 -375 -478 -450 -770 -11 -44 -31 -95 -44 -114 -21 -31 -44
-121 -34 -131 2 -2 51 18 110 45 618 284 1431 384 2042 249 494 -108 937 -351
1299 -711 70 -71 129 -128 131 -128 17 0 35 321 25 456 -41 589 -368 1110
-878 1399 -168 95 -335 155 -571 206 -134 28 -493 37 -631 14z"/>
<path d="M3624 12345 c-294 -33 -566 -110 -783 -219 -211 -107 -448 -322 -590
-535 -86 -130 -163 -275 -226 -426 -20 -49 -137 -391 -260 -760 -317 -955
-695 -2035 -1285 -3670 -90 -247 -165 -457 -168 -465 -3 -8 9 -2 26 14 18 17
32 28 32 25 0 -2 -19 -42 -41 -89 -397 -817 -435 -1785 -104 -2630 170 -433
399 -789 725 -1124 554 -570 1264 -913 2065 -996 162 -17 514 -14 680 5 461
54 882 189 1270 410 1264 718 1921 2149 1635 3565 -56 275 -145 532 -280 805
-471 955 -1355 1622 -2405 1815 l-110 20 85 -5 c117 -7 299 -31 460 -61 833
-153 1445 -497 1900 -1068 121 -152 297 -426 387 -601 26 -51 32 -75 37 -155
9 -161 70 -355 158 -505 210 -356 575 -578 988 -602 462 -26 917 237 1133 654
81 156 137 365 137 508 0 45 9 67 83 196 191 334 373 577 588 784 487 469
1133 742 1989 840 124 14 237 19 170 8 -726 -123 -1346 -438 -1850 -943 -887
-886 -1201 -2182 -818 -3370 381 -1182 1406 -2068 2623 -2269 197 -32 329 -43
550 -43 296 0 537 29 805 97 747 188 1405 629 1868 1249 351 471 564 1008 638
1606 23 184 23 566 0 750 -45 363 -145 716 -292 1029 -50 105 -68 151 -43 109
5 -10 19 -22 29 -28 18 -9 16 1 -16 87 -531 1461 -1095 3065 -1401 3983 -270
811 -332 961 -503 1217 -296 445 -702 685 -1317 780 -81 12 -180 17 -393 17
-274 1 -290 0 -413 -27 -271 -58 -515 -163 -757 -326 -258 -173 -489 -388
-845 -791 -299 -337 -396 -430 -507 -486 -108 -55 -187 -40 -291 54 -274 245
-652 372 -1107 372 -452 0 -831 -126 -1101 -365 -105 -94 -162 -111 -256 -79
-117 40 -219 132 -536 488 -429 481 -658 689 -957 872 -195 119 -431 213 -655
260 -107 23 -147 26 -375 29 -173 3 -294 -1 -376 -10z m-94 -5446 c805 -75
1487 -589 1783 -1345 144 -368 178 -839 88 -1240 -186 -830 -856 -1466 -1701
-1615 -151 -27 -438 -36 -591 -19 -644 71 -1196 406 -1550 942 -280 424 -398
962 -323 1478 89 613 449 1165 976 1492 384 239 861 350 1318 307z m9085 1
c665 -61 1262 -426 1607 -982 214 -346 319 -715 319 -1128 0 -348 -67 -642
-216 -945 -297 -605 -862 -1027 -1535 -1147 -149 -26 -438 -35 -592 -18 -733
81 -1354 513 -1674 1165 -105 214 -164 403 -200 640 -22 148 -22 461 0 605 76
487 281 888 622 1221 443 430 1052 646 1669 589z"/>
</g>
</svg>
